<mxfile host="65bd71144e">
    <diagram id="Sy8v7anLC2I8XZXzz_O2" name="Page-1">
        <mxGraphModel dx="2694" dy="1150" grid="1" gridSize="10" guides="1" tooltips="1" connect="1" arrows="1" fold="1" page="1" pageScale="1" pageWidth="850" pageHeight="1100" math="0" shadow="0">
            <root>
                <mxCell id="0"/>
                <mxCell id="1" parent="0"/>
                <mxCell id="2" value="Début de l'histoire" style="edgeStyle=none;html=1;" edge="1" parent="1" source="3" target="7">
                    <mxGeometry relative="1" as="geometry"/>
                </mxCell>
                <mxCell id="3" value="Greg est quelqu'un de normal qui essai de passer au travers de sa journée." style="rounded=1;whiteSpace=wrap;html=1;" vertex="1" parent="1">
                    <mxGeometry x="365" y="70" width="120" height="60" as="geometry"/>
                </mxCell>
                <mxCell id="4" value="Part de chez lui&lt;br&gt;sans déjeuner" style="edgeStyle=none;html=1;entryX=0.5;entryY=0;entryDx=0;entryDy=0;" edge="1" parent="1" source="7" target="9">
                    <mxGeometry relative="1" as="geometry"/>
                </mxCell>
                <mxCell id="5" value="Déjeune" style="edgeStyle=none;html=1;entryX=0;entryY=0.5;entryDx=0;entryDy=0;" edge="1" parent="1" source="7" target="10">
                    <mxGeometry relative="1" as="geometry"/>
                </mxCell>
                <mxCell id="6" value="Retourne se coucher" style="edgeStyle=none;html=1;entryX=1;entryY=0.5;entryDx=0;entryDy=0;" edge="1" parent="1" source="7" target="12">
                    <mxGeometry x="-0.0323" relative="1" as="geometry">
                        <mxPoint as="offset"/>
                    </mxGeometry>
                </mxCell>
                <mxCell id="7" value="Greg se lève,&lt;br&gt;que fait-il?" style="rhombus;whiteSpace=wrap;html=1;" vertex="1" parent="1">
                    <mxGeometry x="366.25" y="175" width="117.5" height="110" as="geometry"/>
                </mxCell>
                <mxCell id="8" value="" style="edgeStyle=none;html=1;" edge="1" parent="1" source="9" target="15">
                    <mxGeometry relative="1" as="geometry"/>
                </mxCell>
                <mxCell id="9" value="Arrive à temps pour son bus." style="rounded=1;whiteSpace=wrap;html=1;" vertex="1" parent="1">
                    <mxGeometry x="365" y="390" width="120" height="60" as="geometry"/>
                </mxCell>
                <mxCell id="10" value="Manque son bus&lt;br&gt;(fin)" style="rounded=1;whiteSpace=wrap;html=1;" vertex="1" parent="1">
                    <mxGeometry x="620" y="200" width="120" height="60" as="geometry"/>
                </mxCell>
                <mxCell id="11" value="Reset" style="edgeStyle=none;html=1;entryX=0;entryY=0.5;entryDx=0;entryDy=0;exitX=0.5;exitY=0;exitDx=0;exitDy=0;" edge="1" parent="1" source="12" target="3">
                    <mxGeometry x="0.3559" relative="1" as="geometry">
                        <Array as="points">
                            <mxPoint x="170" y="100"/>
                        </Array>
                        <mxPoint x="170" y="180" as="sourcePoint"/>
                        <mxPoint as="offset"/>
                    </mxGeometry>
                </mxCell>
                <mxCell id="12" value="Greg se réveille le matin suivant.&lt;br&gt;(Changement de route)" style="rounded=1;whiteSpace=wrap;html=1;fillColor=#f8cecc;strokeColor=#b85450;" vertex="1" parent="1">
                    <mxGeometry x="110" y="200" width="120" height="60" as="geometry"/>
                </mxCell>
                <mxCell id="13" value="Sort un arrêt d'avance" style="edgeStyle=none;html=1;entryX=1;entryY=0.5;entryDx=0;entryDy=0;" edge="1" parent="1" source="15" target="17">
                    <mxGeometry relative="1" as="geometry">
                        <Array as="points">
                            <mxPoint x="240" y="570"/>
                        </Array>
                    </mxGeometry>
                </mxCell>
                <mxCell id="14" value="Sort à l'arrêt habituel" style="edgeStyle=none;html=1;entryX=0;entryY=0.5;entryDx=0;entryDy=0;" edge="1" parent="1" source="15" target="18">
                    <mxGeometry relative="1" as="geometry"/>
                </mxCell>
                <mxCell id="15" value="Le bus arrive&lt;br&gt;près de l'arrêt de Greg" style="rhombus;whiteSpace=wrap;html=1;fillColor=#dae8fc;strokeColor=#6c8ebf;" vertex="1" parent="1">
                    <mxGeometry x="348" y="495" width="155" height="150" as="geometry"/>
                </mxCell>
                <mxCell id="16" style="edgeStyle=none;html=1;entryX=0.5;entryY=0;entryDx=0;entryDy=0;" edge="1" parent="1" source="17" target="20">
                    <mxGeometry relative="1" as="geometry"/>
                </mxCell>
                <mxCell id="17" value="Arrive un peu en retard au travail" style="rounded=1;whiteSpace=wrap;html=1;" vertex="1" parent="1">
                    <mxGeometry x="110" y="540" width="120" height="60" as="geometry"/>
                </mxCell>
                <mxCell id="18" value="Le bus entre en accident.&lt;br&gt;(fin)" style="rounded=1;whiteSpace=wrap;html=1;" vertex="1" parent="1">
                    <mxGeometry x="620" y="540" width="120" height="60" as="geometry"/>
                </mxCell>
                <mxCell id="19" style="edgeStyle=none;html=1;entryX=0;entryY=0.5;entryDx=0;entryDy=0;" edge="1" parent="1" source="20" target="23">
                    <mxGeometry relative="1" as="geometry"/>
                </mxCell>
                <mxCell id="20" value="Greg arrive au travaille." style="rounded=1;whiteSpace=wrap;html=1;" vertex="1" parent="1">
                    <mxGeometry x="110" y="750" width="120" height="60" as="geometry"/>
                </mxCell>
                <mxCell id="21" value="Oui" style="edgeStyle=none;html=1;entryX=0.5;entryY=0;entryDx=0;entryDy=0;exitX=0;exitY=1;exitDx=0;exitDy=0;" edge="1" parent="1" source="23" target="25">
                    <mxGeometry relative="1" as="geometry"/>
                </mxCell>
                <mxCell id="22" value="Non" style="edgeStyle=none;html=1;exitX=1;exitY=1;exitDx=0;exitDy=0;entryX=0;entryY=0.5;entryDx=0;entryDy=0;" edge="1" parent="1" source="23" target="27">
                    <mxGeometry relative="1" as="geometry"/>
                </mxCell>
                <mxCell id="23" value="Vous-êtes vous rendormi au début de la journée?" style="rhombus;whiteSpace=wrap;html=1;fillColor=#f8cecc;strokeColor=#b85450;" vertex="1" parent="1">
                    <mxGeometry x="363" y="715" width="125" height="130" as="geometry"/>
                </mxCell>
                <mxCell id="24" style="edgeStyle=none;html=1;entryX=0.5;entryY=0;entryDx=0;entryDy=0;" edge="1" parent="1" source="25" target="29">
                    <mxGeometry relative="1" as="geometry"/>
                </mxCell>
                <mxCell id="25" value="Greg entre au travail." style="rounded=1;whiteSpace=wrap;html=1;" vertex="1" parent="1">
                    <mxGeometry x="-145" y="900" width="120" height="60" as="geometry"/>
                </mxCell>
                <mxCell id="26" style="edgeStyle=none;html=1;exitX=0.5;exitY=1;exitDx=0;exitDy=0;entryX=0.5;entryY=0;entryDx=0;entryDy=0;" edge="1" parent="1" source="27" target="52">
                    <mxGeometry relative="1" as="geometry"/>
                </mxCell>
                <mxCell id="27" value="Greg réalise qu'il a congé aujourd'hui." style="rounded=1;whiteSpace=wrap;html=1;" vertex="1" parent="1">
                    <mxGeometry x="920" y="900" width="120" height="60" as="geometry"/>
                </mxCell>
                <mxCell id="28" style="edgeStyle=none;html=1;entryX=0.5;entryY=0;entryDx=0;entryDy=0;" edge="1" parent="1" source="29" target="33">
                    <mxGeometry relative="1" as="geometry"/>
                </mxCell>
                <mxCell id="29" value="À la moitié de la journée Greg devient très assoifé." style="rounded=1;whiteSpace=wrap;html=1;" vertex="1" parent="1">
                    <mxGeometry x="-145" y="1080" width="120" height="60" as="geometry"/>
                </mxCell>
                <mxCell id="30" value="Machine distributrice" style="edgeStyle=none;html=1;entryX=1;entryY=0.5;entryDx=0;entryDy=0;" edge="1" parent="1" source="33" target="34">
                    <mxGeometry relative="1" as="geometry"/>
                </mxCell>
                <mxCell id="31" value="Machine à café" style="edgeStyle=none;html=1;entryX=0;entryY=0.5;entryDx=0;entryDy=0;" edge="1" parent="1" source="33" target="35">
                    <mxGeometry relative="1" as="geometry"/>
                </mxCell>
                <mxCell id="32" value="Robinet dans la salle d'employé" style="edgeStyle=none;html=1;entryX=0.5;entryY=0;entryDx=0;entryDy=0;" edge="1" parent="1" source="33" target="37">
                    <mxGeometry relative="1" as="geometry"/>
                </mxCell>
                <mxCell id="33" value="Comment Greg va-t-il étancher sa soif?" style="rhombus;whiteSpace=wrap;html=1;fillColor=#dae8fc;strokeColor=#6c8ebf;" vertex="1" parent="1">
                    <mxGeometry x="-162.5" y="1180" width="155" height="160" as="geometry"/>
                </mxCell>
                <mxCell id="34" value="La machine tombe sur Greg, lui brisant la majorité de ses os.&lt;br&gt;(fin)" style="rounded=1;whiteSpace=wrap;html=1;" vertex="1" parent="1">
                    <mxGeometry x="-450" y="1230" width="120" height="60" as="geometry"/>
                </mxCell>
                <mxCell id="35" value="La machine déborde et brûle les mains de Greg au troisième degré.&lt;br&gt;(fin)" style="rounded=1;whiteSpace=wrap;html=1;" vertex="1" parent="1">
                    <mxGeometry x="170" y="1220" width="120" height="80" as="geometry"/>
                </mxCell>
                <mxCell id="36" style="edgeStyle=none;html=1;exitX=0.5;exitY=1;exitDx=0;exitDy=0;entryX=0.5;entryY=0;entryDx=0;entryDy=0;" edge="1" parent="1" source="37" target="39">
                    <mxGeometry relative="1" as="geometry"/>
                </mxCell>
                <mxCell id="37" value="Greg bois plusieurs verres d'eau a répétition, il avait très soif." style="rounded=1;whiteSpace=wrap;html=1;" vertex="1" parent="1">
                    <mxGeometry x="-145" y="1440" width="120" height="60" as="geometry"/>
                </mxCell>
                <mxCell id="38" style="edgeStyle=none;html=1;entryX=0.5;entryY=0;entryDx=0;entryDy=0;" edge="1" parent="1" source="39" target="43">
                    <mxGeometry relative="1" as="geometry"/>
                </mxCell>
                <mxCell id="39" value="Vers la fin de sa journée, l'ordinateur de Greg commence à faire des étincelles." style="rounded=1;whiteSpace=wrap;html=1;" vertex="1" parent="1">
                    <mxGeometry x="-145" y="1600" width="120" height="60" as="geometry"/>
                </mxCell>
                <mxCell id="40" value="Ignorer le problème" style="edgeStyle=none;html=1;entryX=0.5;entryY=0;entryDx=0;entryDy=0;" edge="1" parent="1" source="43" target="45">
                    <mxGeometry relative="1" as="geometry"/>
                </mxCell>
                <mxCell id="41" value="Ouvrir l'ordinateur" style="edgeStyle=none;html=1;entryX=1;entryY=0.5;entryDx=0;entryDy=0;" edge="1" parent="1" source="43" target="46">
                    <mxGeometry relative="1" as="geometry"/>
                </mxCell>
                <mxCell id="42" value="Donner un coup de pied" style="edgeStyle=none;html=1;entryX=0;entryY=0.5;entryDx=0;entryDy=0;" edge="1" parent="1" source="43" target="47">
                    <mxGeometry relative="1" as="geometry"/>
                </mxCell>
                <mxCell id="43" value="Qu'est ce que Greg va faire?" style="rhombus;whiteSpace=wrap;html=1;fillColor=#dae8fc;strokeColor=#6c8ebf;" vertex="1" parent="1">
                    <mxGeometry x="-162.5" y="1730" width="155" height="140" as="geometry"/>
                </mxCell>
                <mxCell id="44" value="Greg retourne chez eux." style="edgeStyle=none;html=1;entryX=0.5;entryY=0;entryDx=0;entryDy=0;" edge="1" parent="1" source="45" target="49">
                    <mxGeometry relative="1" as="geometry"/>
                </mxCell>
                <mxCell id="45" value="Greg s'en va de son bureau, laissant le problème au Greg de demain." style="rounded=1;whiteSpace=wrap;html=1;" vertex="1" parent="1">
                    <mxGeometry x="-145" y="1940" width="120" height="60" as="geometry"/>
                </mxCell>
                <mxCell id="46" value="L'ordinateur explose.&lt;br&gt;(fin)" style="rounded=1;whiteSpace=wrap;html=1;" vertex="1" parent="1">
                    <mxGeometry x="-460" y="1770" width="120" height="60" as="geometry"/>
                </mxCell>
                <mxCell id="47" value="L'ordinateur cesse de fonctionner.&lt;br&gt;(fin)" style="rounded=1;whiteSpace=wrap;html=1;" vertex="1" parent="1">
                    <mxGeometry x="170" y="1770" width="120" height="60" as="geometry"/>
                </mxCell>
                <mxCell id="48" style="edgeStyle=none;html=1;entryX=0.5;entryY=0;entryDx=0;entryDy=0;" edge="1" parent="1" source="49" target="50">
                    <mxGeometry relative="1" as="geometry"/>
                </mxCell>
                <mxCell id="49" value="Greg vois aux nouvelles que les bureaux auquel il travaille ont passé au feu suite à un problème qui n'a pas été réparer sur un ordinateur." style="rounded=1;whiteSpace=wrap;html=1;" vertex="1" parent="1">
                    <mxGeometry x="-145" y="2100" width="120" height="130" as="geometry"/>
                </mxCell>
                <mxCell id="50" value="Greg va se coucher, il va devoir se trouver un nouveau travail mais cela ne le dérange pas plus qu'il faut.&amp;nbsp;&lt;br&gt;(fin)" style="rounded=1;whiteSpace=wrap;html=1;" vertex="1" parent="1">
                    <mxGeometry x="-145" y="2280" width="120" height="130" as="geometry"/>
                </mxCell>
                <mxCell id="51" style="edgeStyle=none;html=1;entryX=0.5;entryY=0;entryDx=0;entryDy=0;" edge="1" parent="1" source="52" target="58">
                    <mxGeometry relative="1" as="geometry"/>
                </mxCell>
                <mxCell id="52" value="Greg décide qu'il n'est pas sorti de chez lui pour rien et qu'il va faire quelque chose de sa journée de congé." style="rounded=1;whiteSpace=wrap;html=1;" vertex="1" parent="1">
                    <mxGeometry x="920" y="1080" width="120" height="110" as="geometry"/>
                </mxCell>
                <mxCell id="53" value="Greg meurt dans son someille après n'avoir ni consommé de nourriture ni liquide pendant plus de 48 heures.&lt;br&gt;(fin)" style="rounded=1;whiteSpace=wrap;html=1;" vertex="1" parent="1">
                    <mxGeometry x="110" y="300" width="120" height="130" as="geometry"/>
                </mxCell>
                <mxCell id="54" value="Si deuxième fois" style="endArrow=classic;html=1;entryX=1;entryY=0.5;entryDx=0;entryDy=0;" edge="1" parent="1" target="53">
                    <mxGeometry width="50" height="50" relative="1" as="geometry">
                        <mxPoint x="310" y="230" as="sourcePoint"/>
                        <mxPoint x="100" y="340" as="targetPoint"/>
                    </mxGeometry>
                </mxCell>
                <mxCell id="55" value="Ne rien faire" style="edgeStyle=none;html=1;" edge="1" parent="1" source="58" target="59">
                    <mxGeometry x="0.1" relative="1" as="geometry">
                        <mxPoint as="offset"/>
                    </mxGeometry>
                </mxCell>
                <mxCell id="56" value="Aller au travail" style="edgeStyle=none;html=1;entryX=1;entryY=0.5;entryDx=0;entryDy=0;" edge="1" parent="1" source="58" target="61">
                    <mxGeometry relative="1" as="geometry"/>
                </mxCell>
                <mxCell id="57" value="La lune" style="edgeStyle=none;html=1;exitX=0.5;exitY=1;exitDx=0;exitDy=0;" edge="1" parent="1" source="58" target="65">
                    <mxGeometry relative="1" as="geometry"/>
                </mxCell>
                <mxCell id="58" value="Où Greg va-t-il passer son congé?" style="rhombus;whiteSpace=wrap;html=1;fillColor=#dae8fc;strokeColor=#6c8ebf;" vertex="1" parent="1">
                    <mxGeometry x="900" y="1210" width="160" height="145" as="geometry"/>
                </mxCell>
                <mxCell id="59" value="Greg ne trouve rien à faire, il décide que si il ne va rien faire, il va le faire mieux que qui que ce soit, Greg reste immobile assez longtemps pour que ses pieds fusionnent avec le sol.&lt;br&gt;(fin)" style="rounded=1;whiteSpace=wrap;html=1;" vertex="1" parent="1">
                    <mxGeometry x="1220" y="1185" width="120" height="190" as="geometry"/>
                </mxCell>
                <mxCell id="60" style="edgeStyle=none;html=1;entryX=0.5;entryY=0;entryDx=0;entryDy=0;" edge="1" parent="1" source="61" target="63">
                    <mxGeometry relative="1" as="geometry"/>
                </mxCell>
                <mxCell id="61" value="Greg réalise que même si il est sensé avoir congé aujourd'hui cela ne l'empêche pas d'aller&amp;nbsp;&lt;br&gt;au travail" style="rounded=1;whiteSpace=wrap;html=1;" vertex="1" parent="1">
                    <mxGeometry x="620" y="1225" width="120" height="110" as="geometry"/>
                </mxCell>
                <mxCell id="62" style="edgeStyle=none;html=1;entryX=0.5;entryY=0;entryDx=0;entryDy=0;" edge="1" parent="1" source="63" target="66">
                    <mxGeometry relative="1" as="geometry"/>
                </mxCell>
                <mxCell id="63" value="Greg affronte ses collègues pour se rendre à son bureau" style="rounded=1;whiteSpace=wrap;html=1;" vertex="1" parent="1">
                    <mxGeometry x="620" y="1490" width="120" height="60" as="geometry"/>
                </mxCell>
                <mxCell id="64" style="edgeStyle=none;html=1;entryX=0.5;entryY=0;entryDx=0;entryDy=0;" edge="1" parent="1" source="65" target="68">
                    <mxGeometry relative="1" as="geometry"/>
                </mxCell>
                <mxCell id="65" value="Greg décide qu'il va passer son congé sur la lune peu importe ce qu'il faut faire." style="rounded=1;whiteSpace=wrap;html=1;" vertex="1" parent="1">
                    <mxGeometry x="920" y="1490" width="120" height="60" as="geometry"/>
                </mxCell>
                <mxCell id="66" value="Greg s'assois à son bureau et observe les alentours, attendant patiemment que quelque chose se passe, mais rien n'arrive&lt;br&gt;(fin)" style="rounded=1;whiteSpace=wrap;html=1;" vertex="1" parent="1">
                    <mxGeometry x="620" y="1700" width="120" height="120" as="geometry"/>
                </mxCell>
                <mxCell id="67" style="edgeStyle=none;html=1;" edge="1" parent="1" source="68" target="72">
                    <mxGeometry relative="1" as="geometry"/>
                </mxCell>
                <mxCell id="68" value="Greg arrive à la Nasa, il demande un voyage et se fait refuser." style="rounded=1;whiteSpace=wrap;html=1;" vertex="1" parent="1">
                    <mxGeometry x="920" y="1730" width="120" height="60" as="geometry"/>
                </mxCell>
                <mxCell id="69" value="Abandonner" style="edgeStyle=none;html=1;exitX=1;exitY=0.5;exitDx=0;exitDy=0;entryX=0;entryY=0.5;entryDx=0;entryDy=0;" edge="1" parent="1" source="72" target="73">
                    <mxGeometry relative="1" as="geometry"/>
                </mxCell>
                <mxCell id="70" value="Voler jusqu'à la lune" style="edgeStyle=none;html=1;entryX=0.5;entryY=0;entryDx=0;entryDy=0;" edge="1" parent="1" source="72" target="75">
                    <mxGeometry relative="1" as="geometry"/>
                </mxCell>
                <mxCell id="71" value="S'infiltrer dans une fusée" style="edgeStyle=none;html=1;entryX=1;entryY=0.5;entryDx=0;entryDy=0;" edge="1" parent="1" source="72" target="79">
                    <mxGeometry relative="1" as="geometry"/>
                </mxCell>
                <mxCell id="72" value="Que fait Greg maintenant?" style="rhombus;whiteSpace=wrap;html=1;fillColor=#dae8fc;strokeColor=#6c8ebf;" vertex="1" parent="1">
                    <mxGeometry x="893.75" y="1830" width="172.5" height="160" as="geometry"/>
                </mxCell>
                <mxCell id="73" value="Greg abandonne son idée d'aller sur la lune et rentre chez lui&lt;br&gt;(fin)" style="rounded=1;whiteSpace=wrap;html=1;" vertex="1" parent="1">
                    <mxGeometry x="1200" y="1880" width="120" height="60" as="geometry"/>
                </mxCell>
                <mxCell id="74" style="edgeStyle=none;html=1;entryX=0.5;entryY=0;entryDx=0;entryDy=0;" edge="1" parent="1" source="75" target="77">
                    <mxGeometry relative="1" as="geometry"/>
                </mxCell>
                <mxCell id="75" value="Greg commence à aspirer l'air autours de lui jusqu'à ce qu'il se mette à floter." style="rounded=1;whiteSpace=wrap;html=1;" vertex="1" parent="1">
                    <mxGeometry x="920" y="2070" width="120" height="80" as="geometry"/>
                </mxCell>
                <mxCell id="76" style="edgeStyle=none;html=1;" edge="1" parent="1" source="77" target="78">
                    <mxGeometry relative="1" as="geometry"/>
                </mxCell>
                <mxCell id="77" value="Greg se met à floter" style="rounded=1;whiteSpace=wrap;html=1;" vertex="1" parent="1">
                    <mxGeometry x="920" y="2300" width="120" height="60" as="geometry"/>
                </mxCell>
                <mxCell id="78" value="Greg se arrive sur la lune, où il passera le reste de ses jours&lt;br&gt;(fin)" style="rounded=1;whiteSpace=wrap;html=1;" vertex="1" parent="1">
                    <mxGeometry x="920" y="2440" width="120" height="60" as="geometry"/>
                </mxCell>
                <mxCell id="79" value="Greg se fait attraper et arrêter&lt;br&gt;(fin)" style="rounded=1;whiteSpace=wrap;html=1;" vertex="1" parent="1">
                    <mxGeometry x="620" y="1880" width="120" height="60" as="geometry"/>
                </mxCell>
                <mxCell id="80" value="" style="whiteSpace=wrap;html=1;aspect=fixed;fontSize=21;fillColor=#2f195f;" vertex="1" parent="1">
                    <mxGeometry x="-820" y="200" width="320" height="320" as="geometry"/>
                </mxCell>
                <mxCell id="81" value="" style="whiteSpace=wrap;html=1;aspect=fixed;fontSize=21;fillColor=#5603ad;" vertex="1" parent="1">
                    <mxGeometry x="-750" y="275" width="180" height="180" as="geometry"/>
                </mxCell>
                <mxCell id="82" value="Couleur de fond" style="text;html=1;strokeColor=none;fillColor=none;align=center;verticalAlign=middle;whiteSpace=wrap;rounded=0;fontSize=21;" vertex="1" parent="1">
                    <mxGeometry x="-480" y="345" width="180" height="30" as="geometry"/>
                </mxCell>
                <mxCell id="83" value="&lt;font color=&quot;#000000&quot;&gt;Bouton&lt;/font&gt;" style="rounded=0;whiteSpace=wrap;html=1;fontSize=21;fillColor=#D0FEF5;" vertex="1" parent="1">
                    <mxGeometry x="-820" y="570" width="140" height="70" as="geometry"/>
                </mxCell>
                <mxCell id="84" value="Bouton" style="rounded=0;whiteSpace=wrap;html=1;fontSize=21;fillColor=#A9CFC7;" vertex="1" parent="1">
                    <mxGeometry x="-820" y="725" width="140" height="70" as="geometry"/>
                </mxCell>
                <mxCell id="85" value="Bouton" style="text;html=1;align=center;verticalAlign=middle;resizable=0;points=[];autosize=1;strokeColor=none;fillColor=none;fontSize=21;fontColor=#000000;" vertex="1" parent="1">
                    <mxGeometry x="-680" y="585" width="90" height="40" as="geometry"/>
                </mxCell>
                <mxCell id="86" value="Bouton survolé" style="text;html=1;align=center;verticalAlign=middle;resizable=0;points=[];autosize=1;strokeColor=none;fillColor=none;fontSize=21;fontColor=#000000;" vertex="1" parent="1">
                    <mxGeometry x="-680" y="725" width="160" height="40" as="geometry"/>
                </mxCell>
                <mxCell id="87" value="Font: Prompt" style="text;html=1;align=center;verticalAlign=middle;resizable=0;points=[];autosize=1;strokeColor=none;fillColor=none;fontSize=21;fontColor=#000000;" vertex="1" parent="1">
                    <mxGeometry x="-680" y="755" width="140" height="40" as="geometry"/>
                </mxCell>
                <mxCell id="88" value="Inspiration: Kyle is Famous" style="text;html=1;align=center;verticalAlign=middle;resizable=0;points=[];autosize=1;strokeColor=none;fillColor=none;fontSize=21;fontColor=#000000;" vertex="1" parent="1">
                    <mxGeometry x="-820" y="80" width="280" height="40" as="geometry"/>
                </mxCell>
                <mxCell id="89" value="Genre: Absurde" style="text;html=1;align=center;verticalAlign=middle;resizable=0;points=[];autosize=1;strokeColor=none;fillColor=none;fontSize=21;fontColor=#000000;" vertex="1" parent="1">
                    <mxGeometry x="-820" y="60" width="170" height="40" as="geometry"/>
                </mxCell>
                <mxCell id="90" value="Une Journée dans la Vie de Greg" style="text;html=1;align=center;verticalAlign=middle;resizable=0;points=[];autosize=1;strokeColor=none;fillColor=none;fontSize=21;fontColor=#000000;" vertex="1" parent="1">
                    <mxGeometry x="-820" y="100" width="330" height="40" as="geometry"/>
                </mxCell>
                <mxCell id="91" value="" style="shape=image;verticalLabelPosition=bottom;labelBackgroundColor=#ffffff;verticalAlign=top;aspect=fixed;imageAspect=0;image=data:image/png,iVBORw0KGgoAAAANSUhEUgAABkAAAASwCAYAAACjAYaXAAAABmJLR0QA/wD/AP+gvaeTAAAgAElEQVR4nOzZsRFBARQAQQQCBahIDTrSy49FShBK9SD9KZow82bObgWX3/bxXj8bgD/0uh2mEwBGnO7LdALAiPNlP50AMOJ5vE4nAIzYTQcAAAAAAAD8mgECAAAAAADkGCAAAAAAAECOAQIAAAAAAOQYIAAAAAAAQI4BAgAAAAAA5BggAAAAAABAjgECAAAAAADkGCAAAAAAAECOAQIAAAAAAOQYIAAAAAAAQI4BAgAAAAAA5BggAAAAAABAjgECAAAAAADkGCAAAAAAAECOAQIAAAAAAOQYIAAAAAAAQI4BAgAAAAAA5BggAAAAAABAjgECAAAAAADkGCAAAAAAAECOAQIAAAAAAOQYIAAAAAAAQI4BAgAAAAAA5BggAAAAAABAjgECAAAAAADkGCAAAAAAAECOAQIAAAAAAOQYIAAAAAAAQI4BAgAAAAAA5BggAAAAAABAjgECAAAAAADkGCAAAAAAAECOAQIAAAAAAOQYIAAAAAAAQI4BAgAAAAAA5BggAAAAAABAjgECAAAAAADkGCAAAAAAAECOAQIAAAAAAOQYIAAAAAAAQI4BAgAAAAAA5BggAAAAAABAjgECAAAAAADkGCAAAAAAAECOAQIAAAAAAOQYIAAAAAAAQI4BAgAAAAAA5BggAAAAAABAjgECAAAAAADkGCAAAAAAAECOAQIAAAAAAOQYIAAAAAAAQI4BAgAAAAAA5BggAAAAAABAjgECAAAAAADkGCAAAAAAAECOAQIAAAAAAOQYIAAAAAAAQI4BAgAAAAAA5BggAAAAAABAjgECAAAAAADkGCAAAAAAAECOAQIAAAAAAOQYIAAAAAAAQI4BAgAAAAAA5BggAAAAAABAjgECAAAAAADkGCAAAAAAAECOAQIAAAAAAOQYIAAAAAAAQI4BAgAAAAAA5BggAAAAAABAjgECAAAAAADkGCAAAAAAAECOAQIAAAAAAOQYIAAAAAAAQI4BAgAAAAAA5BggAAAAAABAjgECAAAAAADkGCAAAAAAAECOAQIAAAAAAOQYIAAAAAAAQI4BAgAAAAAA5BggAAAAAABAjgECAAAAAADkGCAAAAAAAECOAQIAAAAAAOQYIAAAAAAAQI4BAgAAAAAA5BggAAAAAABAjgECAAAAAADkGCAAAAAAAECOAQIAAAAAAOQYIAAAAAAAQI4BAgAAAAAA5BggAAAAAABAjgECAAAAAADkGCAAAAAAAECOAQIAAAAAAOQYIAAAAAAAQI4BAgAAAAAA5BggAAAAAABAjgECAAAAAADkGCAAAAAAAECOAQIAAAAAAOQYIAAAAAAAQI4BAgAAAAAA5BggAAAAAABAjgECAAAAAADkGCAAAAAAAECOAQIAAAAAAOQYIAAAAAAAQI4BAgAAAAAA5BggAAAAAABAjgECAAAAAADkGCAAAAAAAECOAQIAAAAAAOQYIAAAAAAAQI4BAgAAAAAA5BggAAAAAABAjgECAAAAAADkGCAAAAAAAECOAQIAAAAAAOQYIAAAAAAAQI4BAgAAAAAA5BggAAAAAABAjgECAAAAAADkGCAAAAAAAECOAQIAAAAAAOQYIAAAAAAAQI4BAgAAAAAA5BggAAAAAABAjgECAAAAAADkGCAAAAAAAECOAQIAAAAAAOQYIAAAAAAAQI4BAgAAAAAA5BggAAAAAABAjgECAAAAAADkGCAAAAAAAECOAQIAAAAAAOQYIAAAAAAAQI4BAgAAAAAA5BggAAAAAABAjgECAAAAAADkGCAAAAAAAECOAQIAAAAAAOQYIAAAAAAAQI4BAgAAAAAA5BggAAAAAABAjgECAAAAAADkGCAAAAAAAECOAQIAAAAAAOQYIAAAAAAAQI4BAgAAAAAA5BggAAAAAABAjgECAAAAAADkGCAAAAAAAECOAQIAAAAAAOQYIAAAAAAAQI4BAgAAAAAA5BggAAAAAABAjgECAAAAAADkGCAAAAAAAECOAQIAAAAAAOQYIAAAAAAAQI4BAgAAAAAA5BggAAAAAABAjgECAAAAAADkGCAAAAAAAECOAQIAAAAAAOQYIAAAAAAAQI4BAgAAAAAA5BggAAAAAABAjgECAAAAAADkGCAAAAAAAECOAQIAAAAAAOQYIAAAAAAAQI4BAgAAAAAA5BggAAAAAABAjgECAAAAAADkGCAAAAAAAECOAQIAAAAAAOQYIAAAAAAAQI4BAgAAAAAA5BggAAAAAABAjgECAAAAAADkGCAAAAAAAECOAQIAAAAAAOQYIAAAAAAAQI4BAgAAAAAA5BggAAAAAABAjgECAAAAAADkGCAAAAAAAECOAQIAAAAAAOQYIAAAAAAAQI4BAgAAAAAA5BggAAAAAABAjgECAAAAAADkGCAAAAAAAECOAQIAAAAAAOQYIAAAAAAAQI4BAgAAAAAA5BggAAAAAABAjgECAAAAAADkGCAAAAAAAECOAQIAAAAAAOQYIAAAAAAAQI4BAgAAAAAA5BggAAAAAABAjgECAAAAAADkGCAAAAAAAECOAQIAAAAAAOQYIAAAAAAAQI4BAgAAAAAA5BggAAAAAABAjgECAAAAAADkGCAAAAAAAECOAQIAAAAAAOQYIAAAAAAAQI4BAgAAAAAA5BggAAAAAABAjgECAAAAAADkGCAAAAAAAECOAQIAAAAAAOQYIAAAAAAAQI4BAgAAAAAA5BggAAAAAABAjgECAAAAAADkGCAAAAAAAECOAQIAAAAAAOQYIAAAAAAAQI4BAgAAAAAA5BggAAAAAABAjgECAAAAAADkGCAAAAAAAECOAQIAAAAAAOQYIAAAAAAAQI4BAgAAAAAA5BggAAAAAABAjgECAAAAAADkGCAAAAAAAECOAQIAAAAAAOQYIAAAAAAAQI4BAgAAAAAA5BggAAAAAABAjgECAAAAAADkGCAAAAAAAECOAQIAAAAAAOQYIAAAAAAAQI4BAgAAAAAA5BggAAAAAABAjgECAAAAAADkGCAAAAAAAECOAQIAAAAAAOQYIAAAAAAAQI4BAgAAAAAA5BggAAAAAABAjgECAAAAAADkGCAAAAAAAECOAQIAAAAAAOQYIAAAAAAAQI4BAgAAAAAA5BggAAAAAABAjgECAAAAAADkGCAAAAAAAECOAQIAAAAAAOQYIAAAAAAAQI4BAgAAAAAA5BggAAAAAABAjgECAAAAAADkGCAAAAAAAECOAQIAAAAAAOQYIAAAAAAAQI4BAgAAAAAA5BggAAAAAABAjgECAAAAAADkGCAAAAAAAECOAQIAAAAAAOQYIAAAAAAAQI4BAgAAAAAA5BggAAAAAABAjgECAAAAAADkGCAAAAAAAECOAQIAAAAAAOQYIAAAAAAAQI4BAgAAAAAA5BggAAAAAABAjgECAAAAAADkGCAAAAAAAECOAQIAAAAAAOQYIAAAAAAAQI4BAgAAAAAA5BggAAAAAABAjgECAAAAAADkGCAAAAAAAECOAQIAAAAAAOQYIAAAAAAAQI4BAgAAAAAA5BggAAAAAABAjgECAAAAAADkGCAAAAAAAECOAQIAAAAAAOQYIAAAAAAAQI4BAgAAAAAA5BggAAAAAABAjgECAAAAAADkGCAAAAAAAECOAQIAAAAAAOQYIAAAAAAAQI4BAgAAAAAA5BggAAAAAABAjgECAAAAAADkGCAAAAAAAECOAQIAAAAAAOQYIAAAAAAAQI4BAgAAAAAA5BggAAAAAABAjgECAAAAAADkGCAAAAAAAECOAQIAAAAAAOQYIAAAAAAAQI4BAgAAAAAA5BggAAAAAABAjgECAAAAAADkGCAAAAAAAECOAQIAAAAAAOQYIAAAAAAAQI4BAgAAAAAA5BggAAAAAABAjgECAAAAAADkGCAAAAAAAECOAQIAAAAAAOQYIAAAAAAAQI4BAgAAAAAA5BggAAAAAABAjgECAAAAAADkGCAAAAAAAECOAQIAAAAAAOQYIAAAAAAAQI4BAgAAAAAA5BggAAAAAABAjgECAAAAAADkGCAAAAAAAECOAQIAAAAAAOQYIAAAAAAAQI4BAgAAAAAA5BggAAAAAABAjgECAAAAAADkGCAAAAAAAECOAQIAAAAAAOQYIAAAAAAAQI4BAgAAAAAA5BggAAAAAABAjgECAAAAAADkGCAAAAAAAECOAQIAAAAAAOQYIAAAAAAAQI4BAgAAAAAA5BggAAAAAABAjgECAAAAAADkGCAAAAAAAECOAQIAAAAAAOQYIAAAAAAAQI4BAgAAAAAA5BggAAAAAABAjgECAAAAAADkGCAAAAAAAECOAQIAAAAAAOQYIAAAAAAAQI4BAgAAAAAA5BggAAAAAABAjgECAAAAAADkGCAAAAAAAECOAQIAAAAAAOQYIAAAAAAAQI4BAgAAAAAA5BggAAAAAABAjgECAAAAAADkGCAAAAAAAECOAQIAAAAAAOQYIAAAAAAAQI4BAgAAAAAA5BggAAAAAABAjgECAAAAAADkGCAAAAAAAECOAQIAAAAAAOQYIAAAAAAAQI4BAgAAAAAA5BggAAAAAABAjgECAAAAAADkGCAAAAAAAECOAQIAAAAAAOQYIAAAAAAAQI4BAgAAAAAA5BggAAAAAABAjgECAAAAAADkGCAAAAAAAECOAQIAAAAAAOQYIAAAAAAAQI4BAgAAAAAA5BggAAAAAABAjgECAAAAAADkGCAAAAAAAECOAQIAAAAAAOQYIAAAAAAAQI4BAgAAAAAA5BggAAAAAABAjgECAAAAAADkGCAAAAAAAECOAQIAAAAAAOQYIAAAAAAAQI4BAgAAAAAA5BggAAAAAABAjgECAAAAAADkGCAAAAAAAECOAQIAAAAAAOQYIAAAAAAAQI4BAgAAAAAA5BggAAAAAABAjgECAAAAAADkGCAAAAAAAECOAQIAAAAAAOQYIAAAAAAAQI4BAgAAAAAA5BggAAAAAABAjgECAAAAAADkGCAAAAAAAECOAQIAAAAAAOQYIAAAAAAAQI4BAgAAAAAA5BggAAAAAABAjgECAAAAAADkGCAAAAAAAECOAQIAAAAAAOQYIAAAAAAAQI4BAgAAAAAA5BggAAAAAABAjgECAAAAAADkGCAAAAAAAECOAQIAAAAAAOQYIAAAAAAAQI4BAgAAAAAA5BggAAAAAABAjgECAAAAAADkGCAAAAAAAECOAQIAAAAAAOQYIAAAAAAAQI4BAgAAAAAA5BggAAAAAABAjgECAAAAAADkGCAAAAAAAECOAQIAAAAAAOQYIAAAAAAAQI4BAgAAAAAA5BggAAAAAABAjgECAAAAAADkGCAAAAAAAECOAQIAAAAAAOQYIAAAAAAAQI4BAgAAAAAA5BggAAAAAABAjgECAAAAAADkGCAAAAAAAECOAQIAAAAAAOQYIAAAAAAAQI4BAgAAAAAA5BggAAAAAABAjgECAAAAAADkGCAAAAAAAECOAQIAAAAAAOQYIAAAAAAAQI4BAgAAAAAA5BggAAAAAABAjgECAAAAAADkGCAAAAAAAECOAQIAAAAAAOQYIAAAAAAAQI4BAgAAAAAA5BggAAAAAABAjgECAAAAAADkGCAAAAAAAECOAQIAAAAAAOQYIAAAAAAAQI4BAgAAAAAA5BggAAAAAABAjgECAAAAAADkGCAAAAAAAECOAQIAAAAAAOQYIAAAAAAAQI4BAgAAAAAA5BggAAAAAABAjgECAAAAAADkGCAAAAAAAECOAQIAAAAAAOQYIAAAAAAAQI4BAgAAAAAA5BggAAAAAABAjgECAAAAAADkGCAAAAAAAECOAQIAAAAAAOQYIAAAAAAAQI4BAgAAAAAA5BggAAAAAABAjgECAAAAAADkGCAAAAAAAECOAQIAAAAAAOQYIAAAAAAAQI4BAgAAAAAA5BggAAAAAABAjgECAAAAAADkGCAAAAAAAECOAQIAAAAAAOQYIAAAAAAAQI4BAgAAAAAA5BggAAAAAABAjgECAAAAAADkGCAAAAAAAECOAQIAAAAAAOQYIAAAAAAAQI4BAgAAAAAA5BggAAAAAABAjgECAAAAAADkGCAAAAAAAECOAQIAAAAAAOQYIAAAAAAAQI4BAgAAAAAA5BggAAAAAABAjgECAAAAAADkGCAAAAAAAECOAQIAAAAAAOQYIAAAAAAAQI4BAgAAAAAA5BggAAAAAABAjgECAAAAAADkGCAAAAAAAECOAQIAAAAAAOQYIAAAAAAAQI4BAgAAAAAA5BggAAAAAABAjgECAAAAAADkGCAAAAAAAECOAQIAAAAAAOQYIAAAAAAAQI4BAgAAAAAA5BggAAAAAABAjgECAAAAAADkGCAAAAAAAECOAQIAAAAAAOQYIAAAAAAAQI4BAgAAAAAA5BggAAAAAABAjgECAAAAAADkGCAAAAAAAECOAQIAAAAAAOQYIAAAAAAAQI4BAgAAAAAA5BggAAAAAABAjgECAAAAAADkGCAAAAAAAECOAQIAAAAAAOQYIAAAAAAAQI4BAgAAAAAA5BggAAAAAABAjgECAAAAAADkGCAAAAAAAECOAQIAAAAAAOQYIAAAAAAAQI4BAgAAAAAA5BggAAAAAABAjgECAAAAAADkGCAAAAAAAECOAQIAAAAAAOQYIAAAAAAAQI4BAgAAAAAA5BggAAAAAABAjgECAAAAAADkGCAAAAAAAECOAQIAAAAAAOQYIAAAAAAAQI4BAgAAAAAA5BggAAAAAABAjgECAAAAAADkGCAAAAAAAECOAQIAAAAAAOQYIAAAAAAAQI4BAgAAAAAA5BggAAAAAABAjgECAAAAAADkGCAAAAAAAECOAQIAAAAAAOQYIAAAAAAAQI4BAgAAAAAA5BggAAAAAABAjgECAAAAAADkGCAAAAAAAECOAQIAAAAAAOQYIAAAAAAAQI4BAgAAAAAA5BggAAAAAABAjgECAAAAAADkGCAAAAAAAECOAQIAAAAAAOQYIAAAAAAAQI4BAgAAAAAA5BggAAAAAABAjgECAAAAAADkGCAAAAAAAECOAQIAAAAAAOQYIAAAAAAAQI4BAgAAAAAA5BggAAAAAABAjgECAAAAAADkGCAAAAAAAECOAQIAAAAAAOQYIAAAAAAAQI4BAgAAAAAA5BggAAAAAABAjgECAAAAAADkGCAAAAAAAECOAQIAAAAAAOQYIAAAAAAAQI4BAgAAAAAA5BggAAAAAABAjgECAAAAAADkGCAAAAAAAECOAQIAAAAAAOQYIAAAAAAAQI4BAgAAAAAA5BggAAAAAABAjgECAAAAAADkGCAAAAAAAECOAQIAAAAAAOQYIAAAAAAAQI4BAgAAAAAA5BggAAAAAABAjgECAAAAAADkGCAAAAAAAECOAQIAAAAAAOQYIAAAAAAAQI4BAgAAAAAA5BggAAAAAABAjgECAAAAAADkGCAAAAAAAECOAQIAAAAAAOQYIAAAAAAAQI4BAgAAAAAA5BggAAAAAABAjgECAAAAAADkGCAAAAAAAECOAQIAAAAAAOQYIAAAAAAAQI4BAgDwZe8+A7Mq78aP/zJIWGFvCCJTNgooKoijtFpnRdRara1ttdXH2cendbWOWm2tttZqa1vrnrj3qrhxgWwc7L33zvq/4G/0NoSVOwkePp9XXOe+zskvb4Dke9/nAAAAAIkjgAAAAAAAAIkjgAAAAAAAAIkjgAAAAAAAAIkjgAAAAAAAAIkjgAAAAAAAAIkjgAAAAAAAAIkjgAAAAAAAAIkjgAAAAAAAAIkjgAAAAAAAAIkjgAAAAAAAAIkjgAAAAAAAAIkjgAAAAAAAAIkjgAAAAAAAAIkjgAAAAAAAAIkjgAAAAAAAAIkjgAAAAAAAAIkjgAAAAAAAAIkjgAAAAAAAAIkjgAAAAAAAAIkjgAAAAAAAAIkjgAAAAAAAAIkjgAAAAAAAAIkjgAAAAAAAAIkjgAAAAAAAAIkjgAAAAAAAAIkjgAAAAAAAAIkjgAAAAAAAAIkjgAAAAAAAAIkjgAAAAAAAAIkjgAAAAAAAAIkjgAAAAAAAAIkjgAAAAAAAAIkjgAAAAAAAAIkjgAAAAAAAAIkjgAAAAAAAAIkjgAAAAAAAAIkjgAAAAAAAAIkjgAAAAAAAAIkjgAAAAAAAAIkjgAAAAAAAAIkjgAAAAAAAAIkjgAAAAAAAAIkjgAAAAAAAAIkjgAAAAAAAAIkjgAAAAAAAAIkjgAAAAAAAAIkjgAAAAAAAAIkjgAAAAAAAAIkjgAAAAAAAAIkjgAAAAAAAAIkjgAAAAAAAAIkjgAAAAAAAAIkjgAAAAAAAAIkjgAAAAAAAAIkjgAAAAAAAAIkjgAAAAAAAAIkjgAAAAAAAAIkjgAAAAAAAAIkjgAAAAAAAAIkjgAAAAAAAAIkjgAAAAAAAAIkjgAAAAAAAAIkjgAAAAAAAAIkjgAAAAAAAAIkjgAAAAAAAAIkjgAAAAAAAAIkjgAAAAAAAAIkjgAAAAAAAAIkjgAAAAAAAAIkjgAAAAAAAAIkjgAAAAAAAAIkjgAAAAAAAAIkjgAAAAAAAAIkjgAAAAAAAAIkjgAAAAAAAAIkjgAAAAAAAAIkjgAAAAAAAAIkjgAAAAAAAAIkjgAAAAAAAAIkjgAAAAAAAAIkjgAAAAAAAAIkjgAAAAAAAAIkjgAAAAAAAAIkjgAAAAAAAAIkjgAAAAAAAAIkjgAAAAAAAAIkjgAAAAAAAAIkjgAAAAAAAAIkjgAAAAAAAAIkjgAAAAAAAAIkjgAAAAAAAAIkjgAAAAAAAAIkjgAAAAAAAAIkjgAAAAAAAAIkjgAAAAAAAAIkjgAAAAAAAAIkjgAAAAAAAAIkjgAAAAAAAAIkjgAAAAAAAAIkjgAAAAAAAAIkjgAAAAAAAAIkjgAAAAAAAAIkjgAAAAAAAAIkjgAAAAAAAAIkjgAAAAAAAAIkjgAAAAAAAAIkjgAAAAAAAAIkjgAAAAAAAAIkjgAAAAAAAAIkjgAAAAAAAAIkjgAAAAAAAAIkjgAAAAAAAAIkjgAAAAAAAAIkjgAAAAAAAAIkjgAAAAAAAAIkjgAAAAAAAAIkjgAAAAAAAAIkjgAAAAAAAAIkjgAAAAAAAAIkjgAAAAAAAAIkjgAAAAAAAAIkjgAAAAAAAAIkjgAAAAAAAAIkjgAAAAAAAAIkjgAAAAAAAAIkjgAAAAAAAAIkjgAAAAAAAAIkjgAAAAAAAAIkjgAAAAAAAAIkjgAAAAAAAAIkjgAAAAAAAAIkjgAAAAAAAAIkjgAAAAAAAAIkjgAAAAAAAAIkjgAAAAAAAAIkjgAAAAAAAAIkjgAAAAAAAAIkjgAAAAAAAAIkjgAAAAAAAAIkjgAAAAAAAAIkjgAAAAAAAAIkjgAAAAAAAAIkjgAAAAAAAAIkjgAAAAAAAAIkjgAAAAAAAAIkjgAAAAAAAAIkjgAAAAAAAAIkjgAAAAAAAAIkjgAAAAAAAAIkjgAAAAAAAAIkjgAAAAAAAAIkjgAAAAAAAAIkjgAAAAAAAAIkjgAAAAAAAAIkjgAAAAAAAAIkjgAAAAAAAAIkjgAAAAAAAAIkjgAAAAAAAAIkjgAAAAAAAAIkjgAAAAAAAAIkjgAAAAAAAAIkjgAAAAAAAAIkjgAAAAAAAAIkjgAAAAAAAAIkjgAAAAAAAAIkjgAAAAAAAAIkjgAAAAAAAAIkjgAAAAAAAAIkjgAAAAAAAAIkjgAAAAAAAAIkjgAAAAAAAAIkjgAAAAAAAAIkjgAAAAAAAAIkjgAAAAAAAAIkjgAAAAAAAAIkjgAAAAAAAAIkjgAAAAAAAAIkjgAAAAAAAAIkjgAAAAAAAAIkjgAAAAAAAAIkjgAAAAAAAAIkjgAAAAAAAAIkjgAAAAAAAAIkjgAAAAAAAAIkjgAAAAAAAAIkjgAAAAAAAAIkjgAAAAAAAAIkjgAAAAAAAAIkjgAAAAAAAAIkjgAAAAAAAAIkjgAAAAAAAAIkjgAAAAAAAAIkjgAAAAAAAAIkjgAAAAAAAAIkjgAAAAAAAAIkjgAAAAAAAAIkjgAAAAAAAAIkjgAAAAAAAAIkjgAAAAAAAAIkjgAAAAAAAAIkjgAAAAAAAAIkjgAAAAAAAAIkjgAAAAAAAAIkjgAAAAAAAAIkjgAAAAAAAAIkjgAAAAAAAAIkjgAAAAAAAAIkjgAAAAAAAAIkjgAAAAAAAAIkjgAAAAAAAAIkjgAAAAAAAAIkjgAAAAAAAAIkjgAAAAAAAAIkjgAAAAAAAAIkjgAAAAAAAAIkjgAAAAAAAAIkjgAAAAAAAAIkjgAAAAAAAAIkjgAAAAAAAAIkjgAAAAAAAAIkjgAAAAAAAAIkjgAAAAAAAAIkjgAAAAAAAAIkjgAAAAAAAAIkjgAAAAAAAAIkjgAAAAAAAAIkjgAAAAAAAAIkjgAAAAAAAAIkjgAAAAAAAAIkjgAAAAAAAAIkjgAAAAAAAAIkjgAAAAAAAAIkjgAAAAAAAAIkjgAAAAAAAAIkjgAAAAAAAAIkjgAAAAAAAAIkjgAAAAAAAAIkjgAAAAAAAAIkjgAAAAAAAAIkjgAAAAAAAAIkjgAAAAAAAAIkjgAAAAAAAAIkjgAAAAAAAAIkjgAAAAAAAAIkjgAAAAAAAAIkjgAAAAAAAAIkjgAAAAAAAAIkjgAAAAAAAAIkjgAAAAAAAAIkjgAAAAAAAAIkjgAAAAAAAAIkjgAAAAAAAAIkjgAAAAAAAAIkjgAAAAAAAAIkjgAAAAAAAAIkjgAAAAAAAAIkjgAAAAAAAAIkjgAAAAAAAAIkjgAAAAAAAAIkjgAAAAAAAAIkjgAAAAAAAAImTXd0DAAAAACRRZlZG1GlYI2rXqxEREetWFcSaZQVRUlxSzZMBwO5BAAEAAABIg4zMjOh5WLPod3TL6DqocbTsnBc1clNvvlGwoSjmfromJr+5JD56Zn5MHLEoSvQQAKgUAggAAABABe13fOs4+Zpu0apL3lb31W8XoA4AACAASURBVKiZFe161492vevHEed2iLmTV8eDl0+MD5+aV0WTAsDuwzNAAAAAAHZSbp3suOiR/eKiR/bbZvzYktZd8+J/HxsQ59+/b+TUyqqECQFg9yWAAAAAAOyE3DrZccXLA2O/41tX+FoHnNQmLntxoAgCAGnkFlgAUEFvvDU8ZT140LBqmgQAgKp09h19o9N+jbb42oY1hTFt9IpYMnNdrFtVEBERtevXiGbtasee+zSM3NplQ8deBzaOs27fJ2754YeVOjcA7C4EEACooGuuOzFlPXhQ+U+x/GzKqJR15459K2UmAAAq177HtYoBJ5T95Mfkt5bE03/6LMa8uDCKi7b8/8Ks7Izoe3TLOPbiztFx39SAMvCU/Hj3kTkx6tn5lTI3AOxOBBAAqEJnn9cvZf3q8+XHEgAAdk0ZGRHDftu1zPGHrpgYT17/aZRs4794RYUl8cET8+Kjp+fHiVd2i+9d0iXl9WG/7SqAAEAaCCAAAMBOGdY9P2U9at7ymLZ8TTVNA1B1Ou/fONr2rJ9y7Lm/TIknrvt0h65TXFQSD10xMeo1zY3Dftqu9PieezeIDv0axtSPlqdlXgDYXQkgVKvJo8fEa08+HbM+nxoL58yNTRs2ROMWzaN7333iWyd8Lzr26FbdIwIAUI5HTjwwZV1QVBwPTZgVV70+IaYuE0KA5Op7VMuU9eolm+KRKyft9PXuv2R8HHBi66hVr0bK1xBAAKBiBBDS5s4/3FT658zMzDj94gvK3btkwcK48qe/iLeff2mLr7/13Itx+zXXxcHHHhW//uuN0bxN2fuqAgCwa6mRlRmn9W4XJ/doGw9NmBVXjpjgEyFAInXo3zBl/c5Ds2PDmsKdvt7a5QXx7iNzUz4F8vWvAQDsOAGEtLn5kitK/5yVnV1uABn33gdxwXEnxrJFi7d6vZKSkhjx5DMx5p2RcetzT0S3fvukdV4AACrHFyHkpB5t466Pp8fVb0yIuavWV/dYAGnTqnPdlPWkN5dU+JqT3licEkC+/jUAgB2XWd0DsHtZPG9+XDT0+9uMH1+1fPGSOOfI78X8mbMqcTIAANItJyszzuzXIaZdcHTcfnT/aJVXq7pHAkiLOg1zUtaLZ6yt8DUXTku9Rl7jnHJ2AgDbSwChSl115jmxZP6CMsdr1q4dXfr0im799ol6DRuUeX354iVx7dnnV8WIAADspPELV2zx+Bch5PPzj4o/fadPNK2TW8WTAaRXTq2slPW6VTt/+6svrFm+KWVds66bdgBARQkgVJmpEyeXeeZHnXp58Zvb/xZvLp0TD48eGQ988Fa8vnh23Pr8k5HfoX3K3rdfeDnGv/9hVY4MAMAOOPSuETHk7hHx0bxlW3y9do2s+OUBe8X0C46Om4/YJ5rXrVnFEwKkR0ZG6rqosLjC1yzclHqNjMyMcnYCANtLAKHKjHz51ZR17bp149+vvRjH/+zHkZP75bsAMzMz48DDh8S9I18vE0FeePCRKpkVAICd8+q0hdH/9pdjyN0jYvT85VvcUycnO84b0DmmnH9UXD+kdzSq5TYvAABA+gkgVJl5X3uGx+n/e0F03adPufsbNGkcv/zTdSnHxrwzslJmAwAgvV6dtjD63f5SHPPAWzFmwZZDSN2c7PjVwK4x86Jj4vohvaOhEAIAAKSRG0pSZZYsWJiyPuL7w7Z5zoFHfDtya9WKjevXR0TEnGnTK2U2gHR6463hlbJ38KBt/70JsCspKYl45tO58dxn82JotzZx9aE9Y68m9crs+yKEnN2/U9z24edx/VuTY8WGTVu4IsCuae8jWsSqxRsrdI16TT0fCQDSTQChyjRo3Chl3XKPtts8p0ZOTjRs0jgWzJ4TERHr1qytlNkA0uma606slL2DB5XszDgA1a64pCSGT5wdj02aE0O7tYnfHdYrOjfOK7MvL3dzCPlZ3w5xy/ufxZ9HfhorNxRUw8QAO+Ynt5R/dwOAJBlydP+U9SvPeF4vuzYBhCrTvV/fiPhX6XrtqtXRoEnjrZ5TWFCQ8smRr0cUAAC+Ob4IIU9MnhOn9W4XVwzuEXs2rFNmX6NaOfHbg3vE2f07xR/fmRx/eueTapgWAICvu+H2c1LWfZ75Ubl7u/Vql7KeNG5GpcwEWyOAUGUGH3Nk1K5bN9atWRMREePe+yAOOuqIrZ7zwWtvRGHBl+/6a9KyRaXOCABA5SssLok7P54e942bGd/v2TZ+M7hHdGhUt8y+pnVy44Zv9xFAAAC+gR548cqUdZ9W5ccSqCwegk6lKCkpiXkzZqbEiwaNG8VZV1xSun7sX//Z6jU2rl8ff/n15SnHeg3YN72DAgBQbQqKiuOeMTOi69+ej7Oe+TDmrFpX3SMBAAAJ4hMgVIrioqL4bvtukZmVFU1aNI9W7faIlm3zo3l+62jSonksWbAw3nz2hXjxoeFx+MmpD/UtLCiIsSPfj5t/fUV8NnZ8ymvfHja0Kr8NgO1y4bm3V/cIAN9oBUXF8c+PpsZdH0+PH+29Z/z24B7RKq9WdY8FUK5//eLj6h4BANgOAgiVqrioKBbNnReL5s6LMe+MTHmtpKQkpk0uezuDf1/7x/jH1b8vc7xb371jn0EHVNqsADvryCPOrO4RABJh0/8PIXePmR6n99kzrjy4R7QUQoBd0Kv/ml7dIwAA20EAoVp16NZ1u/ZlZWfHb/55a2RmZVXyRAAAVLeNhZtDyP3jZsY5+3aq7nEAAIBvKM8AIW167tc/mrVuFVnZ29/VOnTvts09Obm5cf0Dd8Vee/euyHgAAHzDrN1UGH98e3J1jwFQLWrlec8qAFSUf01Jm3tHvh4Rm297tXTholg4Z24smb8gFsyeE0sWLIiFc+Zuvh3WvPmxaM7c2LhhY+zRueNWr7nnXp3j8r//NfoOHlQV3wLATnnjreEp68GDhpWzEyBZ/vC1OLG+sKiaJgFIhsysjOh+cNM46LS2se9xreL0Bk9X90gA8I0mgJB2mVlZ0bRVy2jaquVW921Yty5q5OSUOd69f9/4xZWXR58D94/+hxwUmZk+qATs2q657sSU9eBBJeXu/WzKqJR15459K2UmgKrw61fGVvcIAInQfp8GcdBpe8QBJ7WJ+s1yq3scAEgMAYRqU7N27S0eH3Tk4THoyMOreBqAqnH2ef1S1q8+X34sASAiLzc7Vm8srO4xANKuTbd6sf8JrWPgKfnRomPd6h4HABJJAAEAAHYpWZkZcUi7ZvHDPnvG97q2ibxrH63ukQDSolHrWjFgaOsYcELr6HJA4+oeBwASTwABAAB2CX1bNYof9m4XJ/dsG83q1KzucQDSok7DGrHf8a1j0Cn50XVQk8jIzNiu8wo3FVfyZAAVN+To/pWy95VnPtyZcaAMAYS0eWX44ynrIcOOr6ZJAAD4pujWtF6c2KNt/KBXu+jYyC1ggGSokZsZvYY0jwEntI79jm8dubWztvvcaaNXxFv3zYp3HppdiRMCpMcNt59TKXv7PPOjnRkHyhBASJuLTzotZT1mKwFk0qiPU9bd+u5dKTMBALDraV2vVpzQLT+GdW8bB7ZtUt3jAKRFRmZGdNm/UQw4oU0M/H5+5DXJ2e5z50xaFe89OjfevG9WLJy2thKnBIDdiwBCtTil/8CU9Zhi/8EDAEiyhrVyYmi3/PhBrz3ioD2aRmbG9t0CZlORW8AAu7Y9924QA0/JjwNPyo+GrXb89n3zPl0dv+z1aiVMBgAIIAAAQKXIzc6Mb3doGcO658fQbvlRu8b23wJm1Lxlce/YGfHg+FmVOCHAzmnevk4c+P38GHhyfrTumrfd582etCreGz43hv22a+mxkpLKmBAAiBBAAACANMrMyIgD8pvEsO75cUqvPaJJ7dztPnfS4lUxfOKsuGfMjJi2fE0lTglQMTd/+p3Yzg+ybY4ej86N9x6dG3MmrYqISAkgAN8k1/zfXdU9AuwQAQQAAKiwfVo2jB/0ahcn92wbrfJq7fD5ny5ZHd3/9nwlTAaQftuKHwunrY3Rzy2IN++dGdNGr6iaoQCqwGP3vV7dI8AOEUAAAICd0r5h3Til1x5xSs89omvTett93sRFK+ORibPiqkN6lh4rCfeAAb7ZFk5dG2/dPytGfuWTHgBA9RJAACDN3nhreKXsHTxo2M6MA1Bpppx/1HbfAmbiopUxfOLsGD5xVkxavPkXg18NIADfdNm5mVEzLztq5WVHRoZnewDArkAAAYA0u+a6Eytl7+BBfooGdi3bih/Tlq+JZz+dF/eMnRGj5i2rmqEAqknjNrXiqAs7xVEXdoqls9fHB0/Oi/cenROfvrtUDAGAaiKAAAAAaTN12Zq4b9yMGD5xdkxctLK6xwGoFMVFJZGZVX4FbpxfK444t0MccW6HWDJrXbz/+OYY8vn7y8QQYLfTtececegRfaNt++bRvGWjyMmtEUsXrYyJY6fHq899FFM+mVPdI5JgAggAAJA2udmZkZdTI/Jy3AIGSK5f7PFCHHBSmxj4/fzo0K/hVvc2aVs7jrygYxx5QcdYOnt9vPfY3CqaEiD9fnzOkaV/Li4pjrtve6HcvU2a1Y8rb/xJDDys1xZfH/St3nHWRcfG6y99HNdfdl8snO8Tw6SfAAIAAKRNm3q146IDusRFB3SJ2SvXxROT58TwibPjndmLxRAgMVYs2BDP3zwlnr95SrTsXDcGnpwfB34/P1p2qrvV8xrn14ojL+iYciwzK0MwBr4xzr/sy2dTFhUWlRtAevXtEH+58/xo1KTeVq+XkZERhxy+T/Tp3ynOOfWmmDR2elrnBQGESvPK8McrZe+QYcfvzDgAlebCc2+v7hEAqkVRcUlkZZZ/C5j8+rXjvAGd47wBnWPWynXx2KTZMXzi7HhvzhK/6AMSY/5na2L41ZNj+NWTo023enHQqW3joNPaRsOWNbfr/Jad6sat046ID56cF2/cMzOmf7yikicGqFxNmzeIm/597jbjx1c1bJwXt953UZxyxJUxf87SSpyO3U3GmOK1fvQgLfpk1qmSrzOmeG2VfB2Sb8mLtat7BIBq8a33HqruEUiIFnVrxsk994hTeu4R/Vs32u7zZq9cF49Omh0X7t+l9NgnS1ZF11uer4wxodSJ1+ZU9wjsJjIyM6LL/o1i0Klt48CT2kStejW2+9w5k1bFe4/OjTfvnxULp/r5l/T4tNnT1T0CCTFm3l2lfy4qLIq+bX9SZs/f7r1oi7e92rB+U8yctiCKCouiTbtmUa9+2d8lvv3auPifU29K79Ds1gQQ0kYA4ZtGAAF2VwIIlaFz47w4pdfmGNKpcd4On//50tXR5ZbnfDKESiWAUB1yamVF36NaxsBT8qPPd5pHdk7mdp1XUhJxco3tv1sCbI0AQrpsK4B06NI6HhtxbcqxtavXx41XPxTPDn8nNm0qjIiIzMyM2H9wj/j1tadFfrtmKftPO+qaGD96aiV9B+xutu9fXQAAgK34bOnquHLEhOj81+eix60vxB/enhzzV6/f7vM7Nc6LmRceEzcfsU/s03LrDxQG+CbZtL4oRg6fEzd8b2Sc2eq5uPXHH8X4/y6KkuKtF9+M8u8wCLDL2n9wj5T1urUb4qcnXB+P3/9GafyIiCguLol3RoyP0466JmbPWJRyzhHfG1Als7J78AwQAKgkhYUFkZ1d/u0O1q5dGQsWzojFS2ZHYWFBNG7cKtq36xm5uT6dBHyzTVy0Mn79yti49NVxcUB+kzitd7s4uWfbqJe79VvAfPWZIZMWr4rhE2fFvWNnxNRla6pocoDKtXZFQbx576x4895Z0bhNrdjv+NYx4ITW0eWAxtU9GkBatMpvkrK+++8vxOTxM8vdv2LZ6rjxqofiL3eeV3qsT/9OlTYfux8BhLS54h+3VPcIALuEN99+NJ569tYoKNgYf73x3TKvjxv/Rtz30O9izNgRUVxclPJaTk7N2Lf/d+OUEy+Jzp36VdXIAJWiuKQk3p61ON6etTgueHF0HN2ldfyg1x5xeMeWkZO19Q+jd2taL357cI/4zeAekXml27YBybN0zvp4/q9T4vm/Tok23erF/ie0jkE/aBvNO1TN7aUBKkOTpvVT1i888d42z3nntXGxccOmyK25+VaVbfZoWimzsXsSQEiboWeeUd0jAFSrdetXx9W/HxYfjXopIqJMwCgs3BT/uefyGP7Yn6KknJvcb9q0Id5+5/F4590n48Sh/xs//fF1kZHhjpXAN9/6gqJ4ZMKseGTCrGhQMyeO2atVnNZ7zzh0z2aRuZX7vLgFDLA7mDNpVQy/elUMv3pytN+nQRx02h5xwEltqnssgB22YnnqJ3fnz1m6zXMKCgpj+bI10aJVo4iIqF27ZqXMxu5JAAGANNiwYW386rJvx+RPyn93y403/yxe+e8923W9kpLiePjRP8aKlYvi4gvvTNeYALuEFRs2xT1jZsQ9Y2ZEm3q1Y2i3NjGse9s4sG2TbZ8MkHDTRq+IaaNXxH2/Gl/dowDssIljpkec/uW6Tl6tWLFs9VbPya6RlfLJka9HFKgIbykFgDS494Grtxo/nnnu79sdP77qpVfuiude+GdFRgPYpc1ZtS5ufu+zGHjHq9H9b8/HVa9P8MwPgIgo3FRc3SMA7LDXX/441q3dULru1bfDNs/Z98BukV0jq3S9ZNGKSpmN3ZNPgABABS1cNDMee/LPZY537LB3RGz+dMh/7rm8zOstWuwZRww5I/bcs1dkZmbGrNmfxEuv3BkzZ01K2ffvuy6JQw7+ftSulVc53wDALmLS4lVx5YgJceWICdG3VaP44f9/eDpA0rTsXDf26Fk/auZlx4r5G+Lz95fF2hUF1T0WwA7JyMiIVvlNYtGC5VFYsPn5liuXr4nb//xUXHj5SRERMfTUg+PNV8aUe43cmjlxweUnphwbN2pq5Q3NbkcAIW2u+fm5Ket0PRT9rG8flbK+/eVn03JdgHR5463hUVj45Q+sGRmZccnF98ahB58SEREfjXopVq9elnLO4UN+HOeec2vk5tQqPTZg36Ni6HEXxB13XxqPPHpD6fHVq5fFayMeiKO+e1YlfycAu45R85bFqHnL4uKXy/+BGWBXkVs7Kzr0axjN2teJgg3F8cnbS2LpnPVl9rXrXT9+etve0Wm/RinHCzYWx1v3zYoHLp0Qq5duqqqxASokMysznn//T1FcVBxLFq+MebOXxPy5S2PhvGWxZNHKaNKsfhz0rd5x+LH7xYtPvZ9ybnaNrOjdt2Ocf9mJ0blbfsprLz/zQVV+GyScAELaPPbP/6SstxZAdiRqvP/qiIoNBlDJ3vsg9e+wQwafVBo/IiJmzp6c8nqvHgfFRef/KzIzs+LrsrKy48wz/hiLFs2K1998uPT4+x8+J4AAu6VNRW4BA+zavnN2+xh6Wdeo3zy39FhRYUm88o9pce//jS+9ldVeA5vEpc8fGLm1y/4fsEZuZhz6k3bR5cDGce3hb28xngDsqjKzMqNZi4bRrEXD6NO/U8prGRkZ0b5z6zLn/PS8o+PnvzyuzPFJ42bE6Pc/q7RZ2f0IIFQLUQNIkkWLZqasDzvk1NTXF89KWZ9y0qVbjB9fddopv0kJIFOnja3glAAApFNGRsSPb+4T3zm7fZnXsrIz4vD/6RC16mXHbWeMipp1s+P8+/tvMX58Veu98uI3rw6K/+v7WmxcW1hZowNUqamfzt2ufUWFRXH1/94Zxd4AQxoJIABQQcuWL0hZt2jeLmX99Wd3dOncf5vX3KNtt6hbp0GsWbv54W8rVi6q4JQA6Xf70al/n531zIdpue4rpx+Ssh5ytzfPALueQ85ot8X48VWDf7hHvH73rGjTLS8ata611b1faNGxbgy9bK944NIJ6RgTIK3Gj54azVs1isZN6kVW9taj7hemfrbtALJpU2Fc9j+3xycTZm5zL+wIAQQAKujrn+bYtGlDyrpFiz1T1hmZmdt13ewaOV+eExk7OR1A5TmzX4eU9dYCyI5EjW+1b16xwQAqWZ0GNeKU3/fYrr2Df9g2GrSomXJszqRVMfblRVFSXBLdBjeJ9n0bprx+5AUd47mbP4+VCzembWaAdDjtqGsiYvNtrxo3qRfNWzWKJs0aRItWjaJJ8/rRvGWjaNayYTRr3iCatWwUubk1YubUBVu95vQp8+N3v7o7Ro38pCq+BXYzAggAVFDjRi1j7rwppevPp4yKTh33KV0fsN8xces/zo/i4qL///ro2Lv3oVu95rLlC2LlysWl6wYNmqV5aoCqJWoASdLvmFaR1zgn5dgb98yM1+6YESUlEQed2ja+debmN8EMGJp67/unb/gsHrx8YhQXlZQeO/qXneLUP/QsXWfnZEa/o1vGf/89oxK/C4CdV1xUHIsXrojFC1dsdV/NWjlRUFD2ln4Tx06Pv//piRjzwefx4buTo7i4ZAtnQ8Vt31tQAYBydem8b8r6iadvicLCTaXrpk3z48D9v3y42yOP3hAlJVv/z93jT92csqf9nr3SNC0AABXV/9iWKet3H54Tt50xKj55Z2l8+u7S+NfZH8er/5weERE162ZHzbqb33866Y3F8cClE1LiR0TEMzd+Hh88OS/lWN+jUr8GwDfRhvWbtnj8rVfHxu03PRXvvz1J/KBSCSAAUEEHH3RSynr6jPHxp7/8JAoLC0qPnXfOrdGo0eYfYj8c9WLcec/l5UaQ115/IB4e/seUY3v3OSzNUwMAsLNadUl9xtujv5tcZs/j130SRQWpD/J98dZpUd77YF66bVrKunn7OhUbEgAQQACgogbse2R0aN875dirr90XPz93n3jrnceioGBjNGzQPK67+oVo3apjREQ88PDv45e/PiTeGflkLFk6N5avWBijP341rrnupPj9H38QJSVf/rBcu1ZeDDn0tCr9ngAAKF+D5l8+02PT+qKY98nqMnuWzl4f8z5fk3Lss/eWlnvN6aOXp6zrN69Zzk4AYHt5BggAVFBmZlb88vx/xwUXD0p5APqMmRPiqmtPiNq18qJTp77RqmWH2LvPYaXPCxk3/o0YN/6NbV7/xBMujry8RpU2PwAAOyan1pfvJ12/urDcT3Usmbku8rvVK12vWlT+Q80LNqZ+WuSL22YBfJPUb1g32nVoEfUa1Im8erWjVu3c2LB+U6xdvT4WzFsWs2cuirWr11f3mOxG/GsKAGnQuVO/uOxXD8a1f/h+SgSJiFi3fnWMHfd6jB33+g5ft3/fw+MHJ1+WrjEBAEiDlYs2RpO2tSMiol7T3KhRMysKNhSV2bdxXeqxosLy73PftF3tlPXWYgnArqTtns3j5DO+Ffse2DU6dGkdGRkZ5e4tLi6J6Z/Pi3dfHx8vPPFeTBo3owonZXfkFlgAkCYH7n9c3Hj9iGjTunNarjfk0NPiyssfi4wM/1wDAOxKls398t3LGRkR+3y3RYWv2fOwZinrFQs3lLMTYNdQv2HduP7vv4gn37o+TvnJkOi4V5utxo+IiMzMjOjQpXWcdtbh8cCLV8Ydj18Svfp2qKKJ2R35BAiV5pXhj1fKXoBdWde9BsQ/bx0bz73wz3jsyT/HgoU7/m6WDu17xyknXRaDBw2rhAkBAKio8f9dHJ33b1y6Pu7XXeKjZ+aXeej5bWeMin/+fPQ2r1ezbnYcdWGnlGOfjVyWnmEBKkGnrm3i5rsuiFb5TSp0nb4DusRdT14Wd9zybNx2wxNRUt49BWEnCSBUmotP2v4H9u7IXoBdXU5OzfjesefFccecG5M+GRmjRr8ckz95P+bNnxKLFs+OgoIvb2eQm1Mr6uY1jLb5XaNn94HRp9ch0bPHQdt81wwAANXnw6fmxdDL9ypdt9+nQVzx8sB49qbP46Nn5pce37i2MDau3fq12nSrFz+7rU803SP1FlgfPT0vrTMDpEujJvXilnsvihat0vOsysyszPjZBcdE46b14+qL70zLNeELAggAVJKMjIzo3vWA6N71gJTjBQUbY8PGdVEzt3bUqJFbTdMBALCzpn+8Ij5+YUHsfcSXt77qOqhJtO1ZP85o8sx2X+ekq7rF8ZftVeb43MmrY/JbS9IyK0C6Xf6H07cYP2ZOWxBLFq6I1m2bRovWmz8lV1JSEn++5uH4dOLsaNaiQXTo0jr2G9Q99urRtswb/47/weD4ZMLMeOTu16rk+2D3IIAAQBWrUSNX+AASaVj3/ErZC7Aruvfi8dHtoCaRW2fnf7WSmb3lT/3+5/yxW31gOkB16dS1TRxy+D4px6Z+Ojd+c+G/Y+KY6RGx+c2AAw/rFVfe+JNo3LReXHDZifGH39wfD9/539JzOnRpHeddOiwGD+mTcq1zLzkhXnrq/Vi5Yhsfn4PtJIAAAABp8ciJB1bKXoBd0dxPVscfjxsZv3r6gMiplZW26w6/anJMeG1R2q4HkE6HHzcg5ZMbc2Yujh8de22sXrWu9FhJSUm89erY+OnQ6+L+F34btevUjF9d/YOY8sncGDXyk4jYHE3OP/0v8fNfHhc//+Vxpefm1asdRw49IB6445Wq+6ZINAGEtLniH7dU9wgA32hr1q6InBo1IyenZnWPAgDAdpgwYnFcMeiN+NGfe0XXQRV7EHDBxuJ48LIJ8dxfpqRpOoD0639A6m37/vK7h1Pix1dNnzI/7rrt+Tj74uMjMyszLrn21Djh0MtT9tx+01Ox976dYr9B3UuPHXhoLwGEtBFASJuhZ55R3SMA7FLWrF0RNWrkRm5OrXL3jB33ejz+1M0x6uNXYsOGzR/xbdK4dQwaODS+d8x50aplh6oaFwCAnTBjzIq48pA3o3GbWtGqS94Onbt66aaY/NaSmPzmknjtzhmxeMaWf4kIsKto3bZZ6Z8LCgpjxEsfb3X/S099EGdffHxERHTcq0307tcxxn70ZegtKSmJR+99PSWAdO7mVqmkjwACAGk0YdI78fDwP8Soj1+JTZs2RERE2/yuccyR78R9EwAAIABJREFUv4hjjz4nMjIyS/f+5+7L4sFHrouSktT7Oy9ZOjeeeOqv8dwL/4yLzvtXfOvQU6v0ewAAYMctnbM+ls5Zv0PnPHvT5/HsTZ9X0kQA6VevQe3SPy9bsiqKCou2un/B3KUp6z79O6UEkIiIaZ/PS1nXb1i3glPClwQQAEiTe+6/Ku594KoyQWPW7Mnxt3+cF59PHR0XX3hnREQ8/ext8cDDv9/q9TZt2hB/uPH0aNmyfXTvekClzQ2ws8565sPqHgEAgCq0ctmaaNK8QURENGhYNzIyMsr8DPxV9RrUSVm3bNO4zJ46dVNvA71h/cY0TAqbCSCkzSvDH09ZDxl2fDVNAlD1nnnu73HP/Vdudc9Lr9wVPXscFAcNPCH+c/dl23XdkpLiuOnmn8XtfxsT2dk10jEqQNr886Op1T0CAABVaNGC5aUBJLdmTvTdv0t89O4n5e4fMLhHyrpgU2GZPT33Sb318+IFK9IwKWwmgJA2F590Wsp6zFYCyKRRqfcH7NZ370qZCaAqrFq1NP7x7//drr0PPnxd1MytHWvWpv6HLr9Nl2jaND8WLJge8+an/kJx5qxJMfL9p2PQgUPTNjMAAFUjIzMjatff/OuXtcsLqnkagIqZPmV+dOu9Z+n63F+fEGccf90Wb4VVJ69WnHnB0SnH5s9JvSVWw8Z58eOzv5ty7NOJs9I4Mbs7AYRqcUr/gSnrMcVrq2kSgIp75bV7Y+PG1AdWZmRkxJ7tekbLFu1j5qxJMWfuZxERMXfe5ym3vqpXr3Fc+n8PRL99vl167MWX/xM3/fXMKC7+8j+QI99/RgABANjF5TXOif2Gto5O+zWK9n0bRrN2taNm3dRfvaxfXRgLp66JaaNXxOfvL4v3H58rjADfGCNeHB1HDv3yFs29+3WMm+44N3574R2xYtnq0uOt8pvE9bf9PPLbNU85/+MPNv9snJmZEfsN6h6XXvfD0k+UfOHFp96vxO+A3Y0AAgAVNHbciJR1nTr147JfPRj79jui9Nizz98eN996dpSUFMe06eMiYnMkueryJ6Jnj0Ep5x/+7TNiytSP48ln/lZ6bPqM8ZX4HQDsnGHd81PWo+Ytj2nL11TTNADVp3n7OnHy77pH/2NbRY3czK3urZWXHe36NIh2fRrEoWe0izNu7h0fPDkvHrpiUiya7s2BwK5txEsfx+wZiyK/XbPSY4OH9ImXRt0UH749ORYvWhGt8ptEvwFdIis7K+XcSWOnx+TxMyMi4rSzDo8LrzipzPWnfTYv3n3dz7+kjwACABU0ddrYlPVPTv99SvyIiDjqu2fFuAlvxGuvP1h6rE+vQ8rEjy8ccvD3UwLIihWL0jgxQHo8cuKBKeuCouJ4aMKsuOr1CTF1mRAC7B6+e17HOPl33SO3dta2N29BjZpZceDJ+dHvmFbx0BUT4/mbp6R5QoD0KSosiusuvTf+dt9FkZmZUXo8N7dGDDysV7nnFRcVx03XPFy6zsoqG4uLCoviigv+FYUFZW+nBTtr629LAAC2afXqZSnr/fc7eov7jj36f1LW5cWPiIgWzdqlrFesXLyT0wFUnRpZmXFa73Yx+X++G/ccPyDaN6xb3SMBVKphv+0ap9/Ua6fjx1fl1s6K02/sFT+4rse2NwNUo3dfHx83X/vIDp3z1+se3erD0jduLIhf/eLvMXHM9IqOByl8AgQAKmj9hi/f5ZydnRONG7fa4r62bfZKWdfLa1zuNRs2bB4ZGZlRUlIcEREFBRvTMClA1fgihJzUo23c9fH0uPqNCTF31frqHgsgrQaekh8nXNG13NcLNxXHwqlrY/mCDVGwoSgyMjMiOyczGrasGc3b14nsnC2/J/WYizvHzHEr4+0HZ1fW6AAVdvffX4gli1bGJdeeFnXr1Sp337q1G+Kai++KF558r9w940dPjRt++0CMGzW1MkZlNyeAAEAFlZSUlP65Zm7tyMzc8jsA8/IapR7IyNjivoiIzMysyMzMjKKi4rTMCFAdcrIy48x+HeJHe+8Zd308Pa56fULMWy2EAN98tevXiB/eUPZWL+tWFsQrt0+PD56cF9NGLY/iopItnB2RlZ0RHfo3igFDW8dhP21X5kHpP/xTrxj9/IJYt9LD0YFd13OPvRtvvzYuTjj14Bj87b2jU9c2Uat2bixbsirmzFwc/33+o3jyobdi5RaeETdn1uK4+7YX4t03JsQHb09K+bka0kkAAQAA0mL8whXRs3mDMse/CCGn9m4Xf//w8/jD25Nj8VqfbAO+ufb9Xquo3zw35djo5xbErT/+KNYs27TN84sKS+KzkUvjs5FL46kbPo3z7983uh/ctPT1+s1zY9/vtYrX75qZ9tkB0mnl8jVxxy3Pxh23PLtD57389Afx8tMfVNJU8CXPAAEAANLi0LtGxJC7R8RH85Zt8fXaNbLilwfsFdMvODpuPmKfaF63ZhVPCJAe+x6XesvTT95ZGn864b3tih9ft3Lhxrj+6HdjxtiVKcf7H7vl26oCANtPAAEAANLm1WkLo//tL8eQu0fE6PnLt7inTk52nDegc0w5/6i4fkjvaFQrp4qnBKiY1nvlpawf/s2kKCrY+VuXblpfFI/9bvJWvwYAsOPcAgsA0qiwqCDeeGv4du2dMvXjre51D1Tgm+zVaQuj3+0vxVGdW8fVh/aIPi0altlTNyc7fjWwa5yzb6e49YPNt8Zavn7H3z0NUNUatvzyE2wlJRFTPtjyJ992xGcjU6/x1a8BAOwcAYRK88rwxytl75Bhx+/MOABVYsOGtXHNdSdu194XX/5PvPjyfyp5Iv4fe/cdHVW1t3H8mUlvpBNK6L03qSIgIIKIIqKoXPu19+5r7+Ver71XLKiogFRRqoL0EmroEBIIEBJCepuZ949jEoZkZlImJAzfz1quxTlnn71/MwmRnGf23gBqj80mzdpxUHN2HtLlHWP1wtAuah9Vr0y74iDkzt5t9OGaXXptabzS8whCANRdp+NzKnwWBgCA6iMAQY15ZMK1NdI2jgAEAADgjGK12fTz1kRN3ZakyzvG6qVhXdU2suzSLiF+RhByS69Wem/VTr21YodO5BXWQsUA4Fz64Tw1aB0sSTKZpLb9IrRlcUq1+mw3INJ+jOS8avUHAAAIQAAAAACcJsVByPT4JF3brbmeHtxZLcKDyrSLCPDVs0M6687ebfSfv+P1xt/ba6FaAHAsKT6zJACRpAkvdtL2oX+pqKBq+4D4BXpp/NPt7c4d3J5ZrRoBoCbEHZp0Wsbp3uiG0zIOPB+boAMAAAA4rYqsNn21YZ/avTdH109fqT1pWeW2iw7y039HdD/N1QGAa2tmHLI7btsvQo/+2l8hUb6V7iusgb8en32umnYJtTu/+tdDDu4AAAAVxQwQAACq6YF7PqntEgDgjFRoseqbuP36YfMB3dijhZ4e3Emx9QJruywAcGn19EO65uXOCo3xKznXbUSM3ts1Uou+2K81Mw5p16o0hzNCvH3NatsvQn0ua6yhNzWTX5D945njyXla/evBGn0NAACcDQhA4DZPf/xebZcAALVi9Khba7sEADijFVqs+nTtHk3asE839GihZ4d0VqOQgNouCwAcyjlRqG8e2aR7vultdz4gxFuj72+t0fe3ltViU0pCjrLSCpRzwtjPKDDURyGRvopqGiizl8lh/988tEm5GUU1+hoAADgbEIDAbS6/9abaLgEAAABnsIJ/gpCv4/bp+u4t9NyQzmpIEAKgjlr2faIatg7W+Gc6lHvd7GVSTMsgxbQsu9eRMzP+s1PLf0pyR4kA4HYn0rMVGlb6c+1Icpr2706uxYoA5whAAAAAANQp+UVGEDJ5U4Lu6tOmtssBAId+fiFeWccLdPXLneUX6FWtvvKyivT9E1v0+4d73VQdALjfWy/8qOfevLnk2Mts1sO3fKDMjJxarApwjE3QAQAAANRJ2QVF+s+y+NouAwCc+u29PXqo63wtnXxABbmWSt+fn2PRn98k6MEu8wk/ANR5M6Ys06qlW0uOo2LCdNdj42qxIsA5ZoCgVlitVmWdyJAk1QsPq+VqAMD9CgvztWTpT1q6bKr27I3T5En7nbZ/5InhioxoqP59x2jQwPEymfiMAoC67/VTwoncoso/+AMAT5CyP0fvX79WX923Ub3HNlKbvhFq2TNMMS2DFRjqLZPZ2O/DarEpO71QR/ZkaX/cCe1cmabVvx5kvw8AZwybzaYXHpmkXxa9pIBAP0nSldcP07xfVyluza5arg4oyxRnzbbVdhHwbOmpaVrwy3RtWrVa8es26OC+BOVkZdm1CQoJVpPWrdShZ3d16dtHwy8fSzCCGndsXmBtlwAP9feKX/X+R/co5ZixdrOvr7/m/prr9J5/39FF+xO2SJJat+qhO299S127DK7xWnF2Gr7yx9ouAQBqxZUv+9Z2CThLBYR4y2YzlrkCasOO+jNruwR4mJvuHq17n7ii5Hj39iRdfeFzKizk5xzqFj5eihqTtHefHrv6eo2Iba2X7rhXMyd9p12bt5YJPyQpOzNL2zds1PQvvtYLt96lCxq30v9NvFEH9zn/xDQA1DVffv2knn3xspLwoyp279mghx4fqp+n/c+NlQFA7TKbTAoP8FV4AA+gAZx9cjOLCD8AeJSvP56n+M0JJcet28fqhrsuqsWKgPKxBBZqxOR3PtB7Tz6nvJyqbYCUn5en3374SYtnzNY9Lz2rifff7eYKAcD9vp/yir6f8opb+rLZrPrk84cVGBCi0aNudUufAHC6RAb6aXzHJuoXG6lejcLVIjxYwb72v3pk5hdpd1qm1icf18qkVE3dlqjjuQW1VDEAAAAqw1Jk0YuPTtJ3s5+W2cv4jP0t91+iBXPWat+uQ7VcHVCKAARu99FzL+mTF151S195OTn674OPKeXwYd3/2ktu6RMAakL89pWa9O0z5V4LC63v8v6w0Ohyz3/02YPq1eMCNWjQolr1AcDp0DI8WK8M76qx7WPl5+18snmIn7d6NAxXj4bhurlnS713UU9Nj0/Skws3ad/x7NNUMQC4l5ePWZZCq8PrgaE+im4WqMgmAfL2MSvtUJ4St5xQfg57KAE482zbuE/ndbxLXubSf/fl5/GBFtQt7AECt5o7eYqeuPYmh9d9fH0V26qFohs2kK+/v2xWqwoLCpRyKFlJe/ersMDxD8lXv/tKo665sibKxlmKPUDgTvc/cp62bF1md65Jk/a6+/Z31bP7cJlMJpd9bN6yVO99dLf27ttkd/6cXhfqtRfnubVenN3YAwQ14b5+bfXK8G4K9PGqVj85hRY9uXCT3l6xw02VAaXYAwQ1pd/ljXXhnS3l7eelpwcuKXO946AojXuyvToNiZbZy/7fhYV5Fm347Yimv7ZDe9cdP10l4yzDHiAAzlYEIHCbrBMZurR9N6UeOWp3Pji0nq64/d8aOvYSdTqnp8xe5f9SbCkq0pbVazV/6q+a9tlXZfYKiYyprxnbNyo4tF6NvQacXQhA4C6JSTt0463t7c61aN5F77yxTIGBlfuZlZeXrQcfG6Kdu9banf/k/Ti1atmt2rUCEgEI3O/587vomSGd3Nrnf5bF67H5G93aJ0AAAncLCPHWA1P6qtuIGEnS3nXH9X99F5dc9/Y1a8ILHTXmobZy9XkYm9WmWf/bpe+f3CqblUc1cC8CEABnK5bAgtssnDajTPgx6OJRenHSZwqNCHd5v5e3t7oN6KduA/rpxkcf1OPXXK81i/8quZ565KgWTpuhS2+81u21A0B1LFs+ze7YbPbS/z3yXaXDD0ny9w/S4w9/o1vu7CqLpXSjzL+W/UIAAqBOmti1mdPwo8Bi1Z60LCVn5SqvyCKzySRfL7MahQSoZXiwfL3KXyrr0YEdtPFIur7flFDudQCobX5B3npy3kC16RvhsM1tn/TUoGubVqg/k9mkSx5pq3r1/fTRzevcVSYAuNUFY3rbHc+ftaaWKgEqhgAEbrPoV/tPE/QYOEBvTv1B3j4+le4rMqa+3p89TdedO1Q74kqXglk8YxYBCIA6Z936+XbHvXtdqJYtula5v6ZNOqh3r5FauXp2ybnNW5dWuT8AqCmh/j7634U9ypw/kVeoj9fu1vT4JK09lCaLg08ye5tN6tM4UuM7NdEtvVqV2Sj9zQt7aM7OQzqRV1gj9QNAdYx/qr3T8GPE7S0rHH6cbMj1zbRrZZoWfLavOuUBQI347yd32R13n3WDw7Yduza3O962aX+N1AQ4QwACt9kbb79O810vPFOl8KOYX0CAbn3qcT00/hqHYwBAXXAs9aDdca+eI6rdZ4/uw+wCkKSDO6vdJwC427gOsYoJ9rc7N3vnIV0/baXScl1vgFlktWl54jEtTzym15fF64fxA3R+i/ol12OC/TWuQ6y+2sBDQAB1S3SzQI2+v3WZ8/s2nJBkzA6Z8ELHMteP7svW4kkJOrDphKxWmxq3D9GQ65sptqP9zOGrX+6kv39MVG5mUZk+AOBM8f285+yOuzdyHJYANaX8+eZAFRxLPlzyZ5PJpC59z6l2n90G9HM4BgDUFWlpyXbHDWKaO2hZcTH1m9kdZ2WxISaAuueyDrF2x8sOpGjcj8sqFH6c6khWnkZP/lNxh+1/3o09ZQwAqAv6jW8sL5/SRyo2q03vXbtGn96+XpLUbUR9BUfY7zmzZFKCHuq6QNNe3q61s5K1fs5hzfrfLj3ac6FmvmH/YZfgCF+de3WTmn8hAAB4OAIQuI3J1Y5ubhmjxocAgEorKMy3Oz55746qstmsdsdWq9VBSwCoPR2iQ+2On164WYWWqv+8yi206MUlW+3HiKr8fkoAUNN6jm5od7z8pyQt+yGx5Di2g/3Prvilx/TJbetVkGsp05elyKbJj2/R8p+S7Me4qIEbKwYA4OxEAAK3iWwQU/Jnm82mjStWV7vPuL9X2B1HNWzooCUA1J6gIPsHgEdTEh20rLhT+wgJDq92nwDgbg1PWv7KZpNWHUytdp/LE4/ZjxESUO0+AcDdopsG2h0vnWz/b7fIJvY/u6a/ukNWS/n7IRWb+tJ2u+NmXUMdtAQAABVFAAK3adWxvd3x+08/r8KCyi9/UCwvJ0efvviq3bkWHdpVuT8AqCmxjdvaHa9d93u1+1y3/g+740aNyq4xDQC1zfmjPDeNcToGAYBKCmvgZ3eckpBjd5x3yt4de9a6Xs40aVuGstMLS45D6/s5aQ0AACqCAARuc/6lY+yON61YpfsuvULpxyr/ScBjh4/ortHjtHPTFrvzw8ZeUq0aAaAmdGxvv1/Rug3ztWfvxir3tz9hi9aeEoC0b9u7yv0BQE05nJVX8meTSeofG1XtPs9tGm13nJyVW+0+AcDdTp3N4eNn/3jl6P5su2ObtWJpblFB6TKCBMAAAFQfAQjcZti4SxUZU9/u3PLfF2h0q45646HHte6vZU5nhBQWFGjdn0v1n/sf0Zg2XbTuz6V216MaNtDQywhAANQ95w64zO7YarXov2/dqJzczEr3lZ+fo/++dZOsVvv1oQcOGFetGgGgJmxLOWF3/NKwLvL1qvqvGIE+XnpmSCe7c/EpGVXuDwBqyvHkPLvjlr3C7I7Xzkq2C0la9LC/Xp6wBv6qF1066+PE0XwnrQEAQEUQgMBtgkPr6aE3XitzPjszS9+99Z5uHnKh+gZF6eLWnTWx7yDdNuJi3TbiYk3sO0ijW3VS36Ao3Xz+SH3/7ofKzc4u088jb76uoHohp+OlAECldO54rtq27mV3bveeDfq/p0bqaMqBCveTlpasJ54drR0719idb9Wymzp3GuiWWgHAnX6Nt9+wt3+TKM285jxFBVZ+2ZYGwf6a+6/B6hpj/5Bw+iljAEBdsHuN/ZJWI+9uLW/f0kcsqYm5WjPjUMnxmIfbymRy3ueoe1rZtTmw+YTjxgAAoEIIQOBWF02coNufecLhdavFoqS9+7R1zTqtWrBYqxYs1tY163Rw335ZLRaH99342IO6cML4migZANzilptel+mU32q3xi/XLXd21WdfPqYDifGyOVjHIDFph778+kndfEdnbdy0pMz1m65/pUzfAFAXTItP0pEs+09BX9i6ofbeP0ZvjuyhQc2inc4I8fUya3Dz+npnVE/tvu9iDW5uP5s4OTOXAARAnbTiJ/ufTU0719Ptn/WUl0/pz7wv7okrmSnS/cIYTXihk8MQZODVTXTpI/b7ym1ZlOLeogEAOAuZ4qzZrCoJt/v+3Q/17hPPKi8nx3VjJwKDg3Xfqy9owl23uakyoNSxeYG1XQI8zAef3KfpM951eL1evUg1bthaQcHGp5uzs9J1KHmPTmQcc3jPxRfdpvvv/tjtteLsNnzlj7VdAjzIxK7N9N3l/R1et1htSjiRrdScAp3INzb3DfXzUVSgn5qGBsrL7Djgvern5ZqypeIz6QBXrnzZt7ZLgIcwe5n02pqhatY11O584tYM/fx8vNbPSVZhvlXNuobqwZ/6qkHrYEnStr+Oae47u7Vn7XFZiqxq2jlUw/7dXP2viLXrJzezSHe3mqesNMfLSAOVsaP+zNouAR4i7tAku+PujW5wS1ugpnjXdgHwTNfce6eGXDJaHzzzghZMnaH83MptXukfGKgLrrhMd73wjBo0iXV9AwDUAXfc8qZSUw/pr2W/lHs9IyNVGRmpFe6vf98xuvv299xVHgDUiMmbEtQmMkTPDulc7nUvs0ktw4PVMrxy/b6+LJ7wA0CdZbXY9PEt6/XCn4Pk4+9Vcr5Jp3p68Ke+ys0s0r71x3V4T7a2LEopCUA6DopSx0FRLvuf9b+dhB8AzggXjOldI23nz1rjuhFQAcwAQY3LTD+hRdNnatOq1YpfH6ekPXuVdSJDVqtVkmT28lJIWKiatm6ldt27qlu/vhp62SXs94EaxwwQ1ASbzaovv35KU375T5mNzCvKZDJr/GUP6JabXpfZ7OX6BqCSmAGCmnBvv7Z6dXg3BfpU7+dWVkGRHp+/UR+s3uWmyoBSzACBu/W+tJHum9zbLgSprrjfj+i1Mctls/K4Bu7DDBC4y6mzOmoKs0XgLgQgqDXZmVkymYxlroDaQACCmrRj5xp9Pun/tCFuYaXu69Z1iG6+/hV17OB4ORmgughAUFOahwXpxaFddHnHJgqoZBCSU2jRz1sP6OlFm5V4onrLqAKOEICgJrTpG6G7vjpHDdtW/3fbv747oM/v3KD8nKp9kAZwhAAE7kIAgjMNAQiAsxYBCE6H/QlbtXzlDG3ctEQHEuOVcsx+w8zoqFg1adJe3boM0bn9L1XzZuUvIQO4EwEIalqYv68u69BY/WKj1LNRuFqFByvU30fmf3b/tVhtSs8r0O60LMUdPq4ViamaHp+kjH/2CAFqCgEIaoqPv5eG39Jco+9ro+jmlf89I2HTCU17ZbtW/nKwBqoDCEDgPgQgONMQgAA4axGAoLZkZ5+QJAUFhbpoCdQMAhDUlhA/b9lsxjJXQG0gAEFNM5mkNv0i1e2C+mrdN0INWgUpskmgfPzMJW0Kci3KPl6og9sztH1ZqrYuSVH80mOy8XQGNYgABO5CAIIzDZug47SzWizKOJ6urIwMSVJwvXqqFxEus9ns4k4A8AwEHwDOVpn5BB8APJvNJu1ckaqdK1Ltzvv4meUb6KWCHIsK8621VB0AVN+Lj56eAARwFwIQ1Dir1apVCxZryaw52rD0b+3fsUsF+fl2bfz8/dW8fVv1GjRQg8eMVp+hg2X6Z4kEAAAAAADOZIX5VoIPAB5h6ndLarsEoFIIQFCjFkz9Ve8/9Zz279jltF1+Xp52xG3SjrhN+v7dD9WiQzvd+/LzOn/smNNUKQDUvqzsdPn6+MvX17+2SwEAtzObTAr195EkHc8tqOVqAAAAAJwNCEBQI3Kzs/X0DbdqwdRfq3T/vvgdemDcVRp51RV6/ouP5BcQ4OYKAaDmZWWny8fHT36+jn+Gbdy0RNNmvKN1G+YrLy9bkhQV2VjnDbxcl11yrxo1bHW6ygUAt4kM9NP4jk3ULzZSvRqFq0V4sIJ97X/1yMwv0u60TK1PPq6VSamaui2RYAQAAACAW7EJOtwuNztbt11wsTatXO2W/noMHKCPf59JCAK3YxN01IQt2/7WlJ9f17oN81VQkCdJatqkgy4ZfYcuHXOXTKbS/Y6+/PpJ/fDTq7I52PHS19dfD977mYYP/ddpqR1nDzZBR01pGR6sV4Z31dj2sfLzrtz+bnlFFk2PT9KTCzdp3/HsGqoQZzs2QUdtatEjTH3GNlKDNsGKjA2Qj7+X0g/nae/a41o59aASt2bUdonwYGyCjrrM28dLvfq1tzu3aunWWqoGnoYABG73yIRrNf/naeVeCwwOVodePdSoWRMF1asnSco6cUKH9h/QtnUblJeTU+59F02coFe+/bLGasbZiQAE7vbN5Of17ffPOww0LrzgBj3ywFeSpJmzP9S7H97lsk+Tyay331iqTh0GuLVWnN0IQFAT7uvXVq8M76ZAH69q9ZNTaNGTCzfp7RU73FQZUIoABO5y6aNtS/5ss0oz39jpsG1YA3/d/llP9RjVwGEbm01aO/OQvrpvo1KTct1aKyARgKDm9OrfXqPG9lXzVg0VFROm9LRMbVyzW3OmLdfObYkV6iMsIkRLtrxnd657oxtqolychQhA4FaLps/Ug5dfXeZ8r0EDdf3D92vgqBEye5X/S7GlqEhLZs7RpP++pc2r1pS5/s6MnzV4zEVurxlnLwIQuNOsOR/pnQ/udNnu4Qe+1KCB43XNdU2VlZ1eob6bNe2oT96Pk7e3T3XLBCQRgMD9nj+/i54Z0smtff5nWbwem7/RrX0CBCBwlylF40r+bCmy6Rr/6eW2a9M3Qo9M76/Q+n4V6jcjJV+vXrxce9cdd0udQDECELibr6+3nn/r3xp1Wb9yr9tsNs2bsUqvPzVZ6WmZTvt9CkhGAAAgAElEQVQiAEFNqty8dMAJm82mj59/ucz5u196Tp8vnqdBF49yGH5Ikpe3t4aNu1RfL1uofz/xSJnr5fUNAHVBRkaqPv784Qq1/WHKq1q9Zm6Z8KNJbDv17DG83D0/Eg5s04pV/MICoG6a2LWZ0/CjwGJVfEqGFu07orm7Dmne7mQt2ndE249lqMBidXjfowM76JquzWqiZAA4LcIb+euhX/pVOPyQpHrRfvq/2QMU3YwPawGou3x8vPXRDw87DD8kyWQyadTYfpoy/3l1O6f1aawOsMcm6HCbjctXauemLXbn/vXAPeWGGc6Yvbx090vPKS3lmKZ99lXJ+fj1cdq6Zp069e7llnoBwF3mL/pW+fn2S/iZTCa1aN5FDRu0VMKBbUo6aCyLcPDQLn0/5ZWSdvXqReqJR7/XOT1HlJyb98eXevPdW2W1WkrOrVg1S+ede3kNvxIAqJxQfx/978IeZc6fyCvUx2t3a3p8ktYeSpPFWv6kc2+zSX0aR2p8pya6pVerMhulv3lhD83ZeUgn8gprpH4AqEm3fdJT4Q39y5zPz7EoeVeWrEVWxbQMVlC4/SzfetF++vcHPfTqxX+frlIBoFJuume0evVv77qhpJiGEfrsl8f15N2faP7ssiu+ADWNAARu8+fsuXbHYVGRuvP5p6rc3/2vvaTfp/yi7IzSaXJ/zp5LAAKgztm4abHdcVBQqJ587Af1OWdUybnZcz/ROx/cKZvNqr37NkkyQpLnn5quLp3Ps7t/5IibtHvPBv066/2Sc/v2b67BVwAAVTOuQ6xigu0f7s3eeUjXT1uptNwCl/cXWW1annhMyxOP6fVl8fph/ACd36J+yfWYYH+N6xCrrzbsc3vtAFCTYjvWK7PnR25Gob59dLP++vaACvONGXAms0ndLqivm97trphWQSVtu4+MUes+Edq9Ou201g0ArkTVD9XN944pcz4pIUV7dx5UVP1QtWrXWH7+pctO+vp66/WP7pB/gK9m/Uy4i9OLJbDgNlvXrLM7HnX1lQoMDq5yf/XCw3ThhPFOxwCAumDPXvs16m++/hW78EOSLr7oNp0/eILdue5dzy8TfhQ7f4j9fkrp6UfdUCkAuNdlHWLtjpcdSNG4H5dVKPw41ZGsPI2e/KfiDtuvez/2lDEA4EzQbUR9u+O8rCI9P2ypFn6+vyT8kCSb1aa434/oyXMX68iebLt7Bl7d5LTUCgCVccHFveV70qxdq8WqFx75SmMGPKp7r39b14x6Xhf1fVg/f7NYNlvpLGCzl1nPv3mzLhrXvzbKxlmMAARus3/HLrvjXoMGVrvP3oMHOR0DAOqCzEz7T+b171v20zCSdOmYu+2OHYUfktSgfnO74/QTKVWsDgBqTofoULvjpxduVqGTfT1cyS206MUlW+3HiKpX5f4AoLZENwuyO571v13atyHdQWsp81iBvnlkk925dudG1khtAFAdQ05Z/nTSR79p2uQ/7cKO1JQMvfz413rynk+Vn1+6lKnZy6yX3rlFIy/te9rqBQhA4DYZx+3/MdeoefU3rWzc8pQHgKmp1e4TANwtNy+r5M/e3r6KjGxUbrumsfZrpNYLcfxLbXh4jEym0v9NFxbmV7NKAHC/hictf2WzSasOVv/fassTj9mPERJQ7T4B4HQLa2C/8fnfPya6vCdu3hEV5JbuARfTIshJawCoHY2aRNkd//T1Iodt505boXuve1u5OaW/z5q9zHr5vVs14pI+NVYjcDICELhNfm6u3XFIaPU/rRcaEW53nJuV7aAlANSekz/p4u8XKLPZq9x2ISER9idMJod9ms1eMpv53zSAuq38rc3dPMbpGAQA3Cwz1X4pwJSEHJf3FBVYlXms9D7/4PL/TQkAtSmqfljJn7Oz8nTkkPO9ilYt3ao7r/mfsrPySs55eXvp1fdv0wVjetdYnUAxnqzAbWyn/Hbq5e3toGXF+fj62h1brVVfUgEAAADudfikX2RNJql/bJST1hVzbtNou+PkrFwHLQGg7tqz1n4/o4B6rn8/9vIx280cOTVEAYC6wHrScqf5eQVlngeWZ8PqnbrvhreVn1f6c80IQW7X8NHn1EidQDECEAAAAABVsi3lhN3xS8O6yNer6r9iBPp46ZkhnezOxadkVLk/AKgt62YlKy+rqOS4Td8IJ60Nnc+PlpdP6c/Q9MN5TloDQO04eqR0CfzwyBBFxYQ5aV1q7fLteuiW91VYWPqz0dvHS699eIeGXdTL7XUCxQhAAAAAAFTJr/FJdsf9m0Rp5jXnKSrQz8EdjjUI9tfcfw1W11N+iZ5+yhgAUNeYTFJ080C78CIztUBTX9pecjz8lhZO+/AN8NLE1zrbndu50vmyMgBQGxL2Hi75s8lk0nW3jazwvcsWbtITd31iN4vE28dLT752vVtrBE5W/TWKAAeWzf1d4dHVWwbheMox140AoA4pshTqz6U/V6jt7j0bnLatyFRiAKhN0+KT9Orwboo5aTP0C1s31N77x+jz9Xv0a3ySVialqsBS/jKmvl5m9W8SpXEdYnVzz5YK8rX/9SQ5M5cABECdZ/Yy6f3dI2W12JR+OE8pCTk6diBHqYm5Sj+cp7AG/uo5uqEGTIjV8in2P9O8fMxq2y9CE1/rrGZdQ+2urfj54Ol8GQBQIQtmr9GQET1Kjq+97UJlpGfr649+s5vd4cj82WvkH+inF966WaZ/9sU0mx3vjwlUlynOms3TFbhFd3PQaRknzspG6HCPY/MCa7sEeIjhF52ef6wtmMv/suEew1f+WNslwINM7NpM313e3+F1i9WmhBPZSs0p0In8QklSqJ+PogL91DQ0UF5OfuG96uflmrLlgNtrxtnrypd9XTcCKmBK0bhK3zP1pe366bltdueueKaDxj/ToUzbvevT9WT/xbJa+Pcf3GNH/Zm1XQI8RFCwv+au/p9Cw+yfA55Iz9b2LQl68KZ37TY8d2TCjcP0fy9f6/B690Y3VLtWQGIGCAAAAIBqmLwpQW0iQ/TskM7lXvcym9QyPFgtwyvX7+vL4gk/AHiUpG0V29PIUmTTJ7euJ/wAUCdlZ+Xp9ae+0yvv32Z3PjQsSH0HdpSPr48k1wHIlK8WytvbS488f00NVQoY2AMEAAAAQLU8t3iL7vttvXIKLdXuK6ugSHfPWafH5290Q2UAUDN2r05T2sFcWYoqHlIkbnUdgBTmW/XuxNXaH5fusi0A1Ja501Zo2uQ/q93P5M/+0OfvzHJDRYBjzAABAAAAUG3vrtypmdsP6sWhXXR5xyYK8PGq1P05hRb9vPWAnl60WYkncmqoSgBwjycHLJFk7P8RGuOnyMYBCmvor6gmgQpr4K/I2ABFNPZXeMMARcQGyNffrORdWU77PLg9U5/fuUHb/mIvTAB134uPTlLCvsO6/cGxCgj0q3I/778+VQFBfpr47xFurA4oRQACt3n64/dquwQAqBUP3PNJbZcAAHXC/vRsXTttpe6Zu16XdWisfrFR6tkoXK3CgxXq7yPzPxtdWqw2pecVaHdaluIOH9eKxFRNj09Sxj97hADAmcJqsen4oTwdP+R8uRe/QC8VFVjLnN+z9rh+fj5e2/9O1dYlKbJZWfYKwJnBZrPp6w9/06yf/taosf3Uo29bNWwcKUtR5WcEv/HsD8rJylPzVg1roFKc7dgEHcBZi03QAZyt2AQdtSXEz1s2m7HMFVAb2AQdwNmKTdABnK2YAQIAAADgtMjMJ/gAAAAAcPqwCToAAAAAAAAAAPA4BCAAAAAAAAAAAMDjEIAAAAAAAAAAAACPQwACAAAAAAAAAAA8DgEIAAAAAAAAAADwOAQgAAAAAAAAAADA4xCAAAAAAAAAAAAAj0MAAgAAAAAAAAAAPA4BCAAAAAAAAAAA8DgEIAAAAAAAAAAAwOMQgAAAAAAAAAAAAI9DAAIAAAAAAAAAADwOAQgAAAAAAAAAAPA4BCAAAAAAAAAAAMDjEIAAAAAAAAAAAACPQwACAAAAAAAAAAA8DgEIAAAAAAAAAADwOAQgAAAAAAAAAADA4xCAAAAAAAAAAAAAj0MAAgAAAAAAAAAAPA4BCAAAAAAAAAAA8DgEIAAAAAAAAAAAwOMQgAAAAAAAAAAAAI9DAAIAAAAAAAAAADwOAQgAAAAAAAAAAPA4BCAAAAAAAAAAAMDjEIAAAAAAAAAAAACPQwACAAAAAAAAAAA8DgEIAAAAAAAAAADwOAQgAAAAAAAAAADA4xCAAAAAAAAAAAAAj0MAAgAAAAAAAAAAPA4BCAAAAAAAAAAA8DgEIAAAAAAAAAAAwOMQgAAAAAAAAAAAAI9DAAIAAAAAAAAAADwOAQgAAAAAAAAAAPA4BCAAAAAAAAAAAMDjEIAAAAAAAAAAAACPQwACAAAAAAAAAAA8DgEIAAAAAAAAAADwOAQgAAAAAAAAAADA4xCAAAAAAAAAAAAAj0MAAgAAAAAAAAAAPA4BCAAAAAAAAAAA8DgEIAAAAAAAAAAAwOMQgAAAAAAAAAAAAI9DAAIAAAAAAAAAADwOAQgAAAAAAAAAAPA4BCAAAAAAAAAAAMDjEIAAAAAAAAAAAACPQwACAAAAAAAAAAA8DgEIAAAAAAAAAADwOAQgAAAAAAAAAADA4xCAAAAAAAAAAAAAj0MAAgAAAAAAAAAAPA4BCAAAAAAAAAAA8DgEIAAAAAAAAAAAwOMQgAAAAAAAAAAAAI9DAAIAAAAAAAAAADyOyWaz2Wq7CAAAAAAAAAAAAHdiBggAAAAAAAAAAPA4BCAAAAAAAAAAAMDjEIAAAAAAAAAAAACPQwACAAAAAAAAAAA8DgEIAAAAAAAAAADwOAQgAAAAAAAAAADA4xCAAAAAAAAAAAAAj0MAAgAAAAAAAAAAPA4BCAAAAAAAAAAA8DgEIAAAAAAAAAAAwOMQgAAAAAAAAAAAAI9DAAIAAAAAAAAAADwOAQgAAAAAAAAAAPA4BCAAAAAAAAAAAMDjEIAAAAAAAAAAAACPQwACAAAAAAAAAAA8DgEIAAAAAAAAAADwOAQgAAAAAAAAAADA4xCAAAAAAAAAAAAAj0MAAgAAAAAAAAAAPA4BCAAAAAAAAAAA8DgEIAAAAAAAAAAAwOMQgAAAAAAAAAAAAI9DAAIAAAAAAAAAADyOd20XAAAAAAAAAACwl1corUuQ/twlbUuWDqVLNptxrX49qV2MNLC11K+FVC+g+uMdSJOW7pJW7ZP2pEg5BcZ5P2+peZR0TjPpvNZS2xjJZKr+eMWOZkrL90h/75Z2pUgncozz3l5Sk3CpW6w0qK3UpZFxrjKv573F0voDkrdZGtJWun2wFB7ovtoTUqVlu433bHeKlFv8nvlILSKl3s2lQW2k1vXdN6YkpWRKf++RVuyVdh6R0nOMr0n7BtJtg4z3zBmbTdp7zKh9zX6j9vxC45q/j1HvOc2kIe2kZhHurf10M9lsxX9tAAAAAAAAAAC1KS1b+nyZ9NkyaX+qVGRx3NZskmLqSVf2ku4dJrWMqtxYVpsRery1QFq0Q8rMc94+wFfq3Uy6+3zpsh5GsFBVmw9Kb86XZm6SjueUhjvl8fWWOjSQ7hgs/auvFOTnvO+4ROmSD6XENPvzfVpIs+6S6odUvW6LVVq4XXp3kfTnTikr33n7QF+pbwvpvmHS6C7Ve882JhnjzthofJ+U956FBUg/3CKN7FT2WpFFmrvFCIaW7ykNuRwJ9jNCtvuHSRd0NL7fzjQEIAAAAAAAAABQy6w26fvV0hPTpcTjlb8/LEB6eIT0wHDjobsr+1OlR6caD9MLiio3ltkkndtaeneC1L1J5e5Nz5WeniF9+bfrB/CnMpmkjg2l/42XRnQsfyZKoUUa9qa0dHf5fdw5RPrg6sqNW2zfMen+n6S5m6Uia+Xu9TJLg9tI71wldW5UuXvTsqVnZ1X8PWsVLa17Ugo9aWZQfLJR+8LtRohTGd5mIwB5Z4LUxs2zWWoaAQgAAAAAAAAA1KLsAumeH6RvVlb+4fTJTCZjqadvb5Iahzlu98c26eZvpKQqBC0nCw2Q3r5SumFAxdpvPSRd9Zm05VD1xvXzlp64SPq/kZLPKcti7T4qdXnBWEKsPE0jpPjnKxYSFbPZpN+2Sjd/LR3OqHrdkhQWKH14tXRV74otJbb5oPSvL6VNSRUfw2SS5t1rhEQ2m/TLeumOyVJqdtXrlqSoYOmL66RLulWvn9OJTdABAAAAAAAAoJZkF0gTPpW+Wl698EMyHnYv3iFd+I4xW6E8v8ZJV3xa/fBDkk7kSrdNlt74w3XbuETpgrerH35IUn6R9Pws6b4pxoyPk+UWOg4/JGOZrxO5lRvvhzXS+I+rH35Ixn4d10+SPvzT+bJfkvGejX6vcuGHZPSbmmX8+eO/pGu/rH74IUnHsqQrP5W+XVn9vk4XAhAAAAAAAAAAqAUWq/Tvb6Q5m93bb/FMi7RTHnr/uVO6YZKUUckAwJmCIunJGdLkVY7b7E+VRr8vJZ9w37hWm/TJX9JLc6XKLnFUmTWRFm2XbvvOCFbcpdAiPfCTNHW94zZ7U6SxH1VtOTRvs9S2gTR9g/TQz0Zg5C75RdIt30oL4t3XZ00iAKmApUuXa+nS5crJyanQeZwZ+PoBAAAAAACgNn2wRJqytmb6Xr3f2OPD+s/D/iMZ0q3fVX72Q0UUFEl3/yhtSy57rdBihC6H0t0/rtUmvT5PmrPJ/X1LxoyPm75xvdF5VRRapDu+l3YdLXutwGKEDAmpVev7/HbGBuZ3fu/e4KZYfpF03VfG91RdRwBSAfP/WKT5fyxSVmZ2hc5XR0FBgZ55+iU98/RLSktLq3IbuFYTXz8AAAAAAACgIhKPS0/NqNxshMqavFractAY48U50s4jNTdWeo4xq8F6yuv5bKkx86Sm5BcZQU+6mz/jbJP0zMyqhxAVcSzLqP3Upc++WCYtqcJ7ZjJJg9pIn19nhGvuWLLLkeQT0lsLaq5/d/Gu7QIAAAAAAAAA4Gzz6m/GfhSueJmlro2lQW2lhqHGslYr9kqr97le2iivUFqbIPl6GxusV0RUsDS4rTGml1naflj6c5eUWIHPYS+INzZYH9nJOM4pkF75rWLjBvtJ57WRzmlmbFC+95gRnOw66jokij9s7KHywPCKjVUR8ckV3+siOsTYfL5zI8lslnYclhZur9iSX7M2SUt3G/dLUkae9Mb8skFSeUL8pXNbSec0l8ICpO5NpAEtja/3XxUMUBqGSkPaSR0bGsdbDhr7yBzNdH1vVUKa040ABAAAAAAAAABOo+M5FQskWkVLb10pjego+Z30JNdildYfMGZc/L3HeR82SV/87Tps8fGSbj1PemKU1CjM/lpadul+GzkFjvuw2oyZB8UByE/rpIMulr4ymaSx3aXXLpPa1DeOi2XnSz+vkx6b5vqB/Bd/S7cNct6mMj75y/lm6pKx18bd50uPjZQa1LO/lpotvbdIev135/1YrNJHf0qD2xivffoGxxvYFzObpEu7Sa+Ok9rGSKZTrp86o8SZjg2lZy+W2sWUnjucIb05X3p7YdlN5k9Wk7OX3OWMCUCWLl0uSerbt7d8fX107Fiq9u7dr/z8fNULCVHTZk0UHh7mohfJYrEoMfGgjqcdV1Z2tgIDA9SgQYwaNWpk95fLXTIyMpSwP1EZGZkym81q1LiBmjZtItMpg2VnZ2v9+o2yWEq/o9au2aCAwABJUq9ePWSzWV22Cfznz1Wpwd2v18vbSzEx0WrWrJnMZtdjZWRkaP/+A8rMyJKPr4+ioiLVokUzp3UWf1/06tVdgYGBZa4XFVm0YoWxA1OfPufIz8+3yq+nIu9ddeo5+Xvcx8dH+/cnKDn5sCwWi/r16yMfnzPmrysAAAAAAACcmBFnPNx3pmNDad59UpPwste8zFLv5tKce6SJXzjeRN3PW+rSSPrP787H8jZLb4yX7hpi9H2qiCDp8ZFSh4bSNZ8731diQbyUkmnMJPlxtfNxJeme86X/XG4f8BQL8pNuGCB1aSxd/L7zJZ3ik6W4RGNWRHVl50u/xjlv42U2wqm7hqjc58qRQdJzY6SOjaTrvnQ+W+ePbVJajnHP96udBwsmkxG6OHrPims7r420Mcn5a5CMmSr9X5MevEC6d6hUz98Ic14fZwRSd34vFTkIVIa0c91/bTtjnqjO/2ORJKl7965auGCxVq5cbfeNYDKZ1KlzB11yyWj5+/uV28fq1Wu1aOGfyskpu9NP48aNNP6KsYqMjHBLvfn5BZoze542b94iyymRW0REhC659CK1bNm85FxmRlbJayy2bNmKkj93aN9ORUVFLtucHIBUtobqcDZWWFioLr54lNq2a13uvXl5+Zo9+zdt2bxNVqv9veHhYRo1aoTad2hb7r3F70e7tm0cBA6FJW26detc4QCkqu9ddeopPt+mTSvNmvmbEhNLf0L16tWdAAQAAAAAAMBDzI93ft3fR5p0Q/nhx8lCA6TPrpWGvWksA3Uyk0m66VxjOaS9Kc77mXCO4/Dj5P4u7WbMdnhuluN2eYXG0lUXd5X+2u183D7NpdfGOX6QX6xXM+ntCUbY42h2g9VmhC+X9XDeV0XEHzb2aHHmun6Ow4+TXdlLWp9gzARxJD1HWrlXGtDKWLLMmT7NpZfHun7PHhguzdwoHajA0mXHc4z9Tn5cI716mXRRZ+N74d/nGe9FeXt9tIiS7h/muu/adsY9UV24cIniNmxUr1491bZda3mZzTpyJEUrV67Wls3blHL0mG659Ub5+vrY3bd40V9avPgvSVLDRg3UqWMHBQUH6kR6htat26CDBw/p229+0J133Vrm3srKy8vXF59/rSNHjsrPz1fde3RS/frRysvLU/y2HTp8+Ii++XqyJk6coDZtjVAgPCJc198wUUWFRZo8eYokadzllygkJESSVC+0nmw2m8s21amhOq/3888n6eiRFPn6+qpnz86Kio5Sbk6u4uN36MiRo/r++ym6csLl6tix/Sn35umzTycpJeWYfH191KVLN0XXj1JeXp527dytgweT9cMPP2n0xaPUp0+vatVZmddzut678sz4dY6OHk1Rv3691aBBjIosFvn4VG7mCgAAAAAAAOouVw+5x3Y39nWoiIah0ux7pId+lv7aZSx11aCeEX48NtJYQsrRJ/glKcBHenSk8/CjmMlkzNj4cInzJak2JEotoqVcJ8tlSdL/jTLGr4jLe0r//V1ad8Bxm/UH3BOAbDjgfBaGn7f01GjX4UexRy40lrnKcLIM2doEKaaelFH2s/slTCZjJk5w+Z//t9MySppzt3TfT9KSHa73FLHZpK2HpHEfSZd2N0KWdjFGIFI/xKj/cIYU6CP1byW9e5XxvVfXnXEByPp1cZow4XJ16tyh5Fybtq3Vo2dXffH5Nzpy5KgWLVyikaMuKLmem5ur1avXSZIGDxmoYcOG2PXZt985ev+9T5SWdlxbt25Tjx7dqlXjvHnzdeTIUdWPidZ1112tevVKg4khQ87T3Dm/a9Wqtfr119m6/4G75ePjLT8/X7Vq1UIFBaU/FZo2jVVEhP2MlIq0qWoNVfXbb3/o6JEURURE6IYbJyosrPQ7//yhgzRzxlytW7dBs2fNU7t2beTl5VVyfe6cP5SSckwRERG68aaJCg0tvXfo0MH668+/tWDBYs377Q81b9ZU9WOiq1xnRZ3O9648x4+n6667byn36woAAAAAAIAzX0Kq8+uXdiu7r4MzLaOkqbcboUR2vrGUUtg/i5Psd7GfRJsYqVPDio8VHmhskv7zOsdt9qe6HjfEXxrewXmbk3mbpTHdnAcgCWnu2Zdiv4uvT5fGxnteUZFBxns2a5PzMRPTnIdVUUHSwEp8HrtzY+m3e42ZHc/Ncr23iGSMP3W9sTTWQxcYgdfjI6U7BkvHsozAqkGosQ/JmaACuV7d0rZda7vwo1hQUJAuGj1CkrR27QYVFpYuqhYQEKCHH7lPN970Lw0dOqTce9u1N5ZYOph0qFr1ZWZmKm7DRpnNZl111Xi7h+eSsVTXqItGKDIqQpmZWdq21cV8tzpegzGW8Td3/BVj7cKP4rEuGj1Cbdu2VkxMtNLSSueOZWRkaONGY4HCcZdfYhd+FBs0+Fy1bt1SRUUWLf9n74yaVBe+fucPHUT4AQAAAAAA4MGc7QchSS2r8Blgs8mY+dEqujT8kKR0JzMKJGOfh4rM/ihmMkkdGjhvcyzL9bjNIoylvirD1bhZ+VKei/e2Ik64qL2dizrK07q+8+vZ+VJKlvM2DcPsv7YV4etlLNe18nFjWaygCi40k54jPT1D6veasTF7sJ/xvdUo7MwJP6QzMAA5dQmlk7Vq1VJBQYEqKCjQvr377a55eZnVokXzcqclWSxWFeQbsyrK2x+kMrZt2yGr1aZWrVooKiqy3DZms1ltWreSJO09pU53OJ01bNu2XTabTbGxjRQb26jcNj4+PvrXtVfp+hsmKjq6NBrdtnWHbDabGjSIUdOmsQ7H6P3P0lfbtm53S4LrTF34+jl6HwEAAAAAAHB2sDqZBVBZ3i6eABdaKt+ns1kKkhGSuBrXVR9VGleuZ85Yba6Xg3LF0T4krsZ1pcjF18LXy/X76kj9EOl/46U/HzZm3lQ0xNh+WLriU2ncx9K25KqNXZvOuCWwIiIc7/xjMplUv3597du3X8fT08ttk5Z2XAn7D+jo0RSlpR1XRkaGjh49psLCQkmSrZpP2NNSjV1lCgoKtHTpcsftjhszIU6cOFGt8Wq7htR/xmrUqBLz5ErGN+6NjW3stF2TJsb1vLw85eTkKCiokjFnZWqqA18/H+/q7UEDAAAAAACAui3QV8pxsj/G1mSpX8vK9ZmdbzysPpppzDZoGWXM7HA1Y2DHEamgyNgsvSJskjYfdN4mJsTYoN2Z/anGfhcRQRUbV5LiEp1fDw0w/vPzdjzLJjPPWAoq1skG885tkZsAABEzSURBVFHBzsfZfNBYaquie4BI0qYk59ddvV9VlZEnxScbM3LaREs9mxp7g/y4RnpudsWWxbJYjQ3Vl+yQ7htmLI1VU/W62xkXgAQGOP8b6+dnzOHJzbWfybF//wH98ftCJSXZ/+0MCPBX48YNZbNJCQlOFpCroOzsHElSQkKiEhJc/I2UlJvnZOebM6CGnGzjffbzq8DOOw7u9Q9wfm9AQOnfppoOQOrC1w8AAAAAAACerXW0tMlJiPDLOumG/hVfmurv3dJdPxgP5q02Y2mpsd2ldycYYzmzN0VatU86r03FxjqULi3Z6bxNy2hjaS1n8gqlX+OMzdorIrfQeAjvTIsoKTLYCH2OZJTfxmozHv47e72u9vfYcViKS5J6NHHerlhCmrRyn/M2rWpg6+N5W6X7pki7jhqBTZCfNLGP9J/Lpev6S6M6S6/Okz5dagRormTkSS/OkX5aJ336L2lQBb9natMZF4BkZGY43Qg7J8d4gB0YWPrQ/MiRo/rm6+9VVFSkxo0bqnuProqNbazIyAj5+/tLkhYuXOKWAKT4YX27dm3UvXtXl+1dPfyv6zUUj5VXhSCg+GuUl+v8b1dubmnfgYGVCz8qO6Gnpt+7ml7CCwAAAAAAAHVfnxbOA5D58dLcLdIY14+nFJ8sXf6J/QP/vELjIX9OgfTSpc5nRBRapBfmSLPvNto5Y7UZD8AznTwKNJmkPs2ltjHGLAFn+2m8Os8IaioyC+STv6SdR5236dtCigg0xnYUgEjSd6ukf5/nOMDo1cxYIsrRslVFVumJ6dKsu10vSWW1Sc/MkHKdzPiRjBk/26q3PbWddQekqz6zf/+z8/8JOwqkr2+Qov9ZFmtiH+nx6dKi7RVbqmvHYenSD6UVj0ntq7Afyul0xgUgKSmpav3P/gunKioqUnLyYUlSeFhYyfn16+NUVFSkJk1idfO/r5PZXPa7sngJrOoKjzDGNZvN5W7WfjqczhqKlyRLOlj5v53h/9x70MW9xbN2/P39ygQgZrNZVqtVBYXl/wTJ+WdGR8Vrqt575+56AAAAAAAA4HlGdpI+X+b4usUq3fqtNPMuqXdzx+0OpEkTv3D8sH/OZmO5ovYNpI1OlmBauF16bJr06mVSgIPV2S1W6d1FzuuWjM2yB7aWfLykCzpIv6x33Hb3UemGSdLXN0rhDj73bLMZM0WenuH8w8U+XsbeFiaTNKqTtHSX47YZedLEz6UZd5U/U6VVtBGibD/suI/ft0mP/CK9Ps7x8mFFFum/fxiBizMN6hlhjDsDkHcWOg6fflxjvManRxsBTq9m0tx7pJ/XSc/MlPakuO4/PUd6e6H08UT31VwTzrhN0Dds2Ohwn44NGzapsLBIfn6+atGy9CdD8VJLsbGNyg0/bDZp394Et9TXsWM7mUzS7t17lZmZ6bBdQsIBpaQ4X2DNanEdt5XXxp01uNKhY1uZTFLyocNKTCz/p2hBQaG++/ZHfT1pst14HTu2l8lk0uHDh8ssTXayNavX/TNW+zLr6hUHIkeOlB//7ty5uzIvp9rvnbvrAQAAAAAAgOe5qIvx6XtnDmdII94xHqAfPeUx1Ylc6Yc10uA3pA1OVnG3WI1P6084x/lYNpsRboz9UFqbYOwJUqzIYswyuekb6ZGprjcAH9tdCjEW3dG1/Zy3laRZm6Shb0oL4o1lropZbUbA8/h0I+TJcrFEU69mUod/ZiNc1sNY7smZ+MPSsDelr5YbD/NP5u8jXdnL+f02m/TOImP2zboE+83kiyzGcmTXfiU9NcP1rIpLurl3T40iq7TeyWJHFqv00hzp6s+MvUmKrEaAdE0fadmj0uguFRtnzX731FuTzrgZIIeTj2jBgsUaPnyo3cPw5OTDWjB/kSTpnHN6ytu79KVFRkZIknbt3qOh+fl2+1XYbDYtmL+4ZOZIdYWFhalTp47asmWbpvw4VVdfc2WZPSsSEw/qm69/UGFhocZfMVZdu3Yuuebj4ytvb28VFRXp0KFkRUVHlhnDVZvq1lDZ19u5cydt3rxVv/w8QzfeNFFhJ82+sdmk3+fN186duxUSEmK3iX1oaD117dZZG+M2a+ovM3TjTf9SvXr17PpfunS5du3aI29vLw0Y0LfM+E2aNlb8th36c8nf6tChvd3SZwcPJmvx4j8r/Xqq8965ux4AAAAAAAB4ngAf6fZBxnJSzqTnSI9Olf77u9StidQwVErLNh6uJx6v2HLr/j5GEPH2wrJByslsNumPbdLiHUaQ0KGhsQzUrqPS1kP24YQjPl7S3eeXHo/qLHVsKG1Ldn5fXKJ04TvGbIxOjYxN4venGq/T2RJaxcwm6c7BpTMx2sUYD/F/Wuv8vsTj0s3fGLMeujY2QqnW9aWrzpFuOU96d3HZcORkNps0e5PxvnVoYIxrNhszKDYfNJYic8XPW7pjsOt2lWE2Sf4VWM7sl/XS7M3G16htjHF+x2Fpq4uvV7Eg3+rVeTqccQHIwPP6a+lfy7Vvb4LatWsjHx8fJScf1pYt22SxWBTToL6GDrP/junZq7uWL1+pYympev+9T9Wla0eFhIQoOztb2+N36tixVDVr1tQte4BI0sVjRik5+bAOHEjS2299oM6dO6p+/WgVWYp08OAh7di+SxaLRS1aNFPnzp3s7jWZpLZtW2vbtu2aOXOudu7aLR9vH426aIR8fX0q3KY6NVTW6Isv1KFDyUpNTdP7732qrl07K7p+lHJzchUfv0NHjhyV2WzSxRePlJeXl/29oy/UoYPJSkk5pnff+VhdunZSdHSU8vLytHvXHiUlHZLJJI0cNUIxMWXnow0Y0Ffb43cqPT1dH7z/iXr07KZ69UJ0MClZmzZtUbfuXbR+XVylXk913ruaqAcAAAAAAACe58ELpC/+NjYVdyUly5ghUVmhAdKAVlJsuHTP+dIzs1yHJoUWY38SZ3uUOHJVb2P/j2I+XtJLY6XLP5JcZTVWm7TjiPFfZfVvKY3vWXpsMhnLO/2xzXmAIRnvR9Jx479ib86XJt2g/2/vXoOjqs84jn93c9sNuUKICsYQRYuiJNIUp1K0A1pFRVDb6jCjI16Ajre2+sLaq9bpxbG1w9Rbx/HSGcXRqbZKoepUAcVagWoF0dEACQoCNkouYIQY+uKvhZDbbrJROP1+3u2ec/b/35O8Or99noerJ8NNC/pef2d7aDHWW5uxnsyaGMKtTIrHQvi0MoXH3W27QrVIbxUjPZlWnf41n7cDLgCpqR5HIi/Bs88u6dQ2KRaLMfbYo5k+/Sxycjo3qisqKuTCi2by2J/+QmPjB7zw/D/+dywvL49zzpnGfxobMxaA5OcnmTP3EhYs+Buvr17DypWvdDqek5NNbW0tp51+KvF4rMv1086eSlNTExs3vsdr/14NwLjqY6mqqkz5nIHuIb3vm8/sObN44omFvLHmTVas6NzYr6ioiGnTpvKlMUd2uTaRSHD57FksWLCI1avWsHJF532WlpYwdeo3GHP0Ud2uXVl5GNOnn8nChU/R0tLK0iXLgPD/UFs7nslTTk47cBjIvRuM/UiSJEmSJCl6SpIw73y44J7QMinTYjG4ZgocXhZeXzMFFr0OL67N/FoAhw0N8zD2NaMaLpgA818enHWLk3DbtyG5TzXCsSPg+tPghj+nNth7bx/uCJUhS64LFR79CQdSccRwuHEaDOzpbPeumhxmevQnUErF2BGZr1wZDLHdPQ3U2M/85Mc3A3DllXMoP2g4H364jbq6dbS1tVFYWEBlZQWlpaW9fkZHRwf19RvYsmUr7e3tlJaUcMTow0kmE9TVrWP9unoOOqiccdWd20E983RorfXVE0+goGBIn+/vrbW1lfr6DTQ3txCLxSgpLmZUVSXJZKKPve5m3br1bNm8lVg8xjHHjKGkpDjtc1LdQ0dHB8uWvdTrnvZWVFhIdU3XZnBNTU00NLxDS3MrWVlZDC8vo6qqstvZK/tqbm6h4dN95ublUFY2jFGjKontO/ijG9u37+Dtt+poaW0lPz9JVVUlQ4cOZdeudhY/txSASSdNJJHY0/5sMP9+g7UfSZIkSZIkRcsPHodfP5VaO6t0zKiBhy7rPNT8zc1w6u86VztkQmECnrwCTu7+N8xs2wFf/03/KiR6k5sNd86ESyZ2f/zjdph1f5iX0h/zzofJY+CU28JMlkwqTsKiq0P1ymfuWAxXzO/5mtpKWH5D6mu8tA7Ouh0aW/u/z+4MGwKLrwsh0/7ugA1AlFnt7e3cdOOvUj6/omIkl8+eNYg7kiRJkiRJkqLvkw743iNw++L0KxV6cvrYEH6U5nc9trIBZtyZuRCkMAF/nBUCl95saoIz5mUuBMnNhlvOhaun9F5B0dwGF94bhq2n+yT8R2fCz8+G59+Gb97d+wyVdBQn4aFL4Yx9fl9+91KY+2DP16UbgAD8dRVcdF+YHZMJw4bA49+BSV2b/eyXDrgWWBoc8XicSZNOTPn84pKivk+SJEmSJEmS1KuseGjhNLI0zJvYsbP/n5Udh4tPhN9+KwQT3flyJTz9Xbjo3jAjYiA/j68qgwcuTu1h+IjisO4lD8Ci1QMLe8oKPm0fNqHv9lFFCZh/Wai0uXNJmHGSqoM/fQQ66Uj4+/dDkPLqO/3eNhDaXj14KZxQ1f2xeKzne3NI1+Y/fTrzOFh4FVx8f6gAGohjDoGHL4fjRg7scz5PVoBIkiRJkiRJ0n7gpfVw7aPwz/WhMiRVsRgcVQ43T4dzx4eH6H1p/ghufQZ+/1yYeZGOZC7M/EpY7+A0H8rv+gTueQFuXpjaAPi9ZcfDcO9bzoMxB6d3bcfuUA1x/WPwxua+g59hBfDKD6Fi6J73mj+CXyyCO5ZAS1t66ydzwsDzn54F5YXdn7P9Y5jwS1jzXtdjWXF4dDacc3x6636mcTv87Em478WwTjoK8mDOSaEipiTZv/W/KAYgkiRJkiRJkrSfaO+AhavgrqWwrC60cOpJfm74Nf6lX4Pza0O1Q7oaPgitl+a/DBu39VwhkRUPD+7Proa5J0FNRfpr7a1xO9y3LDyQX/t+mNfRnRhQOgROOToM3Z40Ouylv7bvhEdXhBDm1Xe7DwOGDoF7Luw5bKjbCn94Hh5ZEe5Zew9hVVY8VJHMqAl7H5vCzIyVDXDuXbDhgz3v5WbDtaeGdlwD+e4Ar28Ke3/sFdjc1PPes7NgZDGcNx7mngxHlg9s3S/KAROAOCBakiRJkiRJ0v+TTdtgeUOoCNi0bU/VwvDCUAFRWwmHl4UKkIH6uB1WbQwP4Ne+v6cVV142jCqD4ytC6FGQN/C19vZJR2jNtLwe3tqyJ/DJzoKKUhh3KIw/LMyeyKTdu6G+MXzfNe+F+R4du2FECcycEO5rX9p2hXv2rw3w9tbwGiAvB44oC/erpiIEVenY0gwPLw+fmZ8bQqeJo/tu95WOHTvhtXfD3te+H+57Vjz8fUeXQ82hYe+JnAwu+gU4YAIQSZIkSZIkSZKkVA2wYEaSJEmSJEmSJGn/YwAiSZIkSZIkSZIixwBEkiRJkiRJkiRFjgGIJEmSJEmSJEmKHAMQSZIkSZIkSZIUOQYgkiRJkiRJkiQpcgxAJEmSJEmSJElS5BiASJIkSZIkSZKkyDEAkSRJkiRJkiRJkWMAIkmSJEmSJEmSIscARJIkSZIkSZIkRY4BiCRJkiRJkiRJihwDEEmSJEmSJEmSFDkGIJIkSZIkSZIkKXIMQCRJkiRJkiRJUuQYgEiSJEmSJEmSpMgxAJEkSZIkSZIkSZFjACJJkiRJkiRJkiLHAESSJEmSJEmSJEWOAYgkSZIkSZIkSYocAxBJkiRJkiRJkhQ5BiCSJEmSJEmSJClyDEAkSZIkSZIkSVLkGIBIkiRJkiRJkqTI+S8uaE4kichHCAAAAABJRU5ErkJggg==;" vertex="1" parent="1">
                    <mxGeometry x="-820" y="835" width="460" height="345" as="geometry"/>
                </mxCell>
                <mxCell id="92" value="Palette de couleur" style="text;html=1;align=center;verticalAlign=middle;resizable=0;points=[];autosize=1;strokeColor=none;fillColor=none;fontSize=21;fontColor=#000000;" vertex="1" parent="1">
                    <mxGeometry x="-680" y="1188" width="180" height="30" as="geometry"/>
                </mxCell>
            </root>
        </mxGraphModel>
    </diagram>
</mxfile>